<svg version="1.1" xmlns="http://www.w3.org/2000/svg" xmlns:xlink="http://www.w3.org/1999/xlink" style="display: none;">

    <symbol id="logo-lantio" width="100px" height="45px" viewBox="0 0 100 45" fill="currentColor">
        <g transform="translate(-395.000000, -598.000000)">
            <g transform="translate(0.000000, 170.000000)">
                <path d="M429.91582,450.720302 C429.824227,450.72539 429.730937,450.730479 429.639343,450.735567 C428.909987,453.966786 428.18063,457.199701 427.424135,460.549652 L432.095409,460.549652 C431.350787,457.192916 430.633304,453.956609 429.91582,450.720302 Z M424.196309,440.68741 L435.319843,440.68741 C438.445899,451.327533 441.560081,461.926949 444.711579,472.655273 L434.848305,472.655273 C434.542993,471.395013 434.2292,470.094045 433.895053,468.715052 L425.617706,468.715052 C425.30052,470.041463 424.99012,471.344128 424.671239,472.685805 L414.796091,472.685805 C417.94759,461.960872 421.068557,451.334318 424.196309,440.68741 Z M494.893,440.750169 L494.893,448.549194 L488.328792,448.549194 L488.328792,472.507706 C487.2602,472.790968 481.389728,472.868992 479.171128,472.640008 C479.035434,468.665863 479.13042,464.666276 479.111762,460.668385 C479.0948,456.699329 479.108369,452.730273 479.108369,448.615345 L472.596743,448.615345 L472.596743,440.831585 C473.558475,440.57207 492.854194,440.482173 494.893,440.750169 Z M395,440.706068 L404.052501,440.706068 L404.052501,464.747692 L413.888636,464.747692 C413.981926,466.164001 413.927648,467.459881 413.937825,468.748976 C413.946306,470.010932 413.939521,471.271192 413.939521,472.509402 C412.91503,472.792664 397.164323,472.88765 395,472.631527 L395,440.706068 Z M454.82928,440.631436 L445.261141,440.631436 C445.741159,439.730766 456.815504,429.385777 458.764413,428 C463.223664,432.099662 467.70327,436.216285 472.305,440.448249 C471.143118,440.823104 470.122019,440.605994 469.124667,440.645006 C468.086606,440.685714 467.046849,440.653486 466.007092,440.653486 L462.814885,440.653486 L462.814885,453.856535 C462.663925,453.912508 462.624913,453.937951 462.584205,453.939647 C462.546889,453.94304 462.504485,453.92947 462.470561,453.909116 C462.434941,453.88537 462.397625,453.853142 462.375575,453.815826 C459.885586,449.466826 457.395597,445.117826 454.82928,440.631436 Z M454.756344,472.682412 L454.756344,458.442999 C454.834369,458.412468 454.912393,458.381937 454.990417,458.351406 C457.705998,463.076957 460.421578,467.804205 463.22536,472.682412 L454.756344,472.682412 Z"></path>
            </g>
        </g>
    </symbol>
    <!-- <g id="Symbols" stroke="none" stroke-width="1" fill="none" fill-rule="evenodd" opacity="0.11983696">
    </g> -->
</svg>
