<svg xmlns="http://www.w3.org/2000/svg" width="103" height="115" viewBox="0 0 103 115">
    <g fill="none" fill-rule="nonzero">
        <path fill="#E6AF78" d="M69.962 81.83V67.86H34.039v13.97L52 97.797z"/>
        <path fill="#EFF2FA" d="M97.734 88.365l-24.695-5.81a3.964 3.964 0 0 1-1.037-.418L52 93.805 32.78 81.573a3.977 3.977 0 0 1-1.817.982l-24.696 5.81a7.983 7.983 0 0 0-6.154 7.771v15.63a3.991 3.991 0 0 0 3.991 3.992h95.794a3.991 3.991 0 0 0 3.991-3.992v-15.63a7.982 7.982 0 0 0-6.154-7.77z"/>
        <path fill="#D29B6E" d="M34.04 67.86V82.6c22.626 8.152 35.922-12.25 35.922-12.25v-2.49H34.039z"/>
        <path fill="#F0C087" d="M26.056 21.96l1.74 38.26a11.974 11.974 0 0 0 4.777 9.036l8.251 6.189a11.976 11.976 0 0 0 7.185 2.395h7.983c2.59 0 5.112-.84 7.184-2.395l8.252-6.19a11.974 11.974 0 0 0 4.777-9.035l1.74-38.26H26.055z"/>
        <path fill="#E6AF78" d="M46.013 29.943c7.983 0 19.957-1.996 22.797-7.983H26.056l1.74 38.26a11.974 11.974 0 0 0 4.777 9.036l8.252 6.188a11.976 11.976 0 0 0 7.184 2.395H52c-3.99 0-11.974-7.982-11.974-17.96v-23.95c0-1.995 1.996-5.986 5.987-5.986z"/>
        <g fill="#E4EAF6">
            <path d="M14.763 102.806L1.832 91.189a7.969 7.969 0 0 0-1.72 4.947v15.63a3.991 3.991 0 0 0 3.992 3.992h13.97v-5.529a9.98 9.98 0 0 0-3.31-7.423zM89.238 102.806l12.932-11.617a7.969 7.969 0 0 1 1.719 4.947v15.63a3.991 3.991 0 0 1-3.992 3.992h-13.97v-5.529a9.978 9.978 0 0 1 3.31-7.423z"/>
        </g>
        <path fill="#5B5D6E" d="M56.99 115.758H47.01l1.247-17.962h7.484z"/>
        <path fill="#515262" d="M56.99 93.805H47.01v3.756c0 1.232.999 2.231 2.231 2.231h5.516a2.231 2.231 0 0 0 2.232-2.231v-3.756z"/>
        <g fill="#E4EAF6">
            <path d="M33.76 77.387L52 93.805s-5.108 2.579-11.412 7.777c-1.3 1.072-3.268.638-3.965-.897l-8.57-18.854 2.71-4.067a1.995 1.995 0 0 1 2.996-.377zM70.242 77.387L52 93.805s5.11 2.579 11.413 7.777c1.3 1.072 3.268.638 3.965-.897l8.57-18.854-2.71-4.067a1.995 1.995 0 0 0-2.996-.377z"/>
        </g>
        <path fill="#785550" d="M64.1 8.738l1.87 13.222c8.54 1.708 9.771 15.111 9.949 18.94.032.694.254 1.365.63 1.95l3.259 5.054s-1.115-8.357 3.991-13.97c0 0 1.754-33.178-19.7-25.196z"/>
        <path fill="#F0C087" d="M81.81 47.053l-2.253 9.012a2.4 2.4 0 0 1-4.709-.284l-1.152-9.218a4.133 4.133 0 0 1 4.101-4.646h.002c2.69 0 4.663 2.527 4.01 5.136z"/>
        <path fill="#694B4B" d="M27.969 5.163l2.952 2.016c-13.346 9.854-10.852 26.755-10.852 26.755 3.991 3.991 3.991 13.97 3.991 13.97l3.992-3.991s-1.54-11.53 5.987-15.966c6.985-4.116 13.097-1.996 19.333-1.996 16.714 0 21.392-6.299 20.58-13.97C73.534 8.012 67.466-.256 52 .007 45.76.113 34.04 2.003 27.97 5.163z"/>
        <path fill="#5A4146" d="M26.805 24.205s-2.12-8.357 4.116-17.026c-13.346 9.854-10.852 26.755-10.852 26.755 3.991 3.992 3.991 13.97 3.991 13.97l3.992-3.991s-1.54-11.53 5.987-15.966c6.985-4.116 13.097-1.995 19.333-1.995 2.718 0 5.087-.182 7.197-.494-12.872.43-20.46-9.32-33.764-1.253z"/>
        <path fill="#E6AF78" d="M22.191 47.053l2.253 9.012a2.4 2.4 0 0 0 4.709-.284l1.152-9.218a4.133 4.133 0 0 0-4.102-4.646h-.001c-2.69 0-4.663 2.527-4.01 5.136z"/>
        <path fill="#E4EAF6" d="M77.945 111.766h-13.97a1.996 1.996 0 0 0-1.996 1.996v1.995H79.94v-1.995a1.996 1.996 0 0 0-1.995-1.996z"/>
    </g>
</svg>
