<svg xmlns="http://www.w3.org/2000/svg" width="103" height="116" viewBox="0 0 103 116">
    <g fill="none" fill-rule="nonzero">
        <path fill="#DDD" d="M69.906 82.002v-13.95H34.003v13.95l17.952 15.961z"/>
        <path fill="#7C7C7C" d="M97.67 88.536l-24.69-5.81a4.147 4.147 0 0 1-1.04-.408L51.956 93.984 32.737 81.753a3.817 3.817 0 0 1-1.808.972l-24.666 5.81c-3.595.837-6.15 4.07-6.15 7.755v15.623a3.985 3.985 0 0 0 3.98 3.98h95.724a3.985 3.985 0 0 0 3.98-3.98V96.29c.022-3.685-2.533-6.918-6.127-7.754z"/>
        <path fill="#AEAEAE" d="M34.003 68.052v14.741c22.61 8.14 35.903-12.231 35.903-12.231v-2.487H34.003v-.023z"/>
        <path fill="#DDD" d="M26.023 22.18l1.74 38.23a11.973 11.973 0 0 0 4.77 9.021l8.253 6.195a11.95 11.95 0 0 0 7.19 2.397h7.98c2.6 0 5.11-.837 7.19-2.397l8.252-6.195a11.902 11.902 0 0 0 4.77-9.02l1.742-38.232H26.023z"/>
        <path fill="#C4C4C4" d="M45.986 30.137c7.981 0 19.941-1.99 22.79-7.98h-42.73l1.74 38.23a11.973 11.973 0 0 0 4.77 9.022l8.253 6.194A11.95 11.95 0 0 0 47.999 78h3.978c-3.979 0-11.96-7.98-11.96-17.951V36.106c-.022-1.967 1.967-5.969 5.97-5.969z"/>
        <g fill="#686868">
            <path d="M33.732 77.57l18.223 16.414s-5.11 2.578-11.395 7.778c-1.289 1.062-3.256.633-3.957-.905l-8.568-18.855 2.713-4.07c.655-1.017 2.08-1.175 2.984-.362zM70.2 77.57L51.977 93.984s5.11 2.578 11.395 7.778c1.289 1.062 3.256.633 3.957-.905l8.568-18.833-2.713-4.07a1.966 1.966 0 0 0-2.984-.384z"/>
        </g>
        <path fill="#727272" d="M64.05 8.953l1.877 13.204c8.523 1.695 9.767 15.102 9.948 18.923.022.7.248 1.357.633 1.944l3.255 5.042s-1.107-8.343 3.98-13.95c0 .023 1.74-33.144-19.693-25.163z"/>
        <path fill="#DDD" d="M81.753 47.252l-2.26 8.998a2.397 2.397 0 0 1-2.33 1.81c-1.198 0-2.238-.905-2.373-2.103l-1.153-9.225c-.317-2.464 1.605-4.635 4.092-4.635 2.69.023 4.68 2.533 4.024 5.155z"/>
        <path fill="#606060" d="M27.944 5.38l2.94 2.013C17.543 17.25 20.03 34.139 20.03 34.139c3.98 3.98 3.98 13.95 3.98 13.95l3.979-3.98s-1.538-11.53 5.99-15.961c6.987-4.115 13.091-1.99 19.331-1.99 16.708 0 21.388-6.285 20.574-13.95C73.478 8.23 67.42-.021 51.955.227c-6.24.113-17.952 1.99-24.01 5.155z"/>
        <path fill="#4C4C4C" d="M26.791 24.417s-2.125-8.342 4.115-17.024C17.567 17.25 20.054 34.139 20.054 34.139c3.979 3.98 3.979 13.95 3.979 13.95l3.98-3.98s-1.538-11.53 5.99-15.961c6.987-4.115 13.09-1.99 19.33-1.99 2.714 0 5.088-.18 7.19-.497-12.864.43-20.438-9.315-33.732-1.244z"/>
        <path fill="#C4C4C4" d="M22.18 47.252l2.26 8.998a2.397 2.397 0 0 0 2.329 1.81c1.198 0 2.238-.905 2.374-2.103l1.153-9.225c.316-2.464-1.606-4.635-4.093-4.635-2.713.023-4.68 2.533-4.024 5.155z"/>
    </g>
</svg>
