<svg xmlns="http://www.w3.org/2000/svg" width="103" height="115" viewBox="0 0 103 115">
    <g fill="none" fill-rule="nonzero">
        <path fill="#E6AF78" d="M69.962 81.83V67.86H34.039v13.97L52 97.795z"/>
        <path fill="#D29B6E" d="M34.04 67.86V82.6c22.626 8.151 35.922-12.251 35.922-12.251v-2.49H34.039v.001z"/>
        <path fill="#F0C087" d="M26.056 21.96l1.74 38.26a11.974 11.974 0 0 0 4.777 9.035l8.251 6.189a11.976 11.976 0 0 0 7.185 2.395h7.983c2.59 0 5.112-.84 7.184-2.395l8.252-6.189a11.974 11.974 0 0 0 4.777-9.036l1.74-38.26H26.055z"/>
        <path fill="#E6AF78" d="M46.013 29.942c7.983 0 19.957-1.996 22.797-7.983H26.056l1.74 38.26a11.974 11.974 0 0 0 4.777 9.036l8.252 6.189a11.976 11.976 0 0 0 7.184 2.395H52c-3.99 0-11.974-7.983-11.974-17.962V35.93c0-1.996 1.996-5.987 5.987-5.987z"/>
        <path fill="#785550" d="M64.1 8.738l1.87 13.221c8.54 1.708 9.771 15.111 9.949 18.94.032.694.254 1.365.63 1.95l3.259 5.054s-1.115-8.357 3.991-13.97c0 0 1.754-33.178-19.7-25.195z"/>
        <path fill="#F0C087" d="M81.81 47.052l-2.253 9.012a2.4 2.4 0 0 1-4.709-.284l-1.152-9.218a4.133 4.133 0 0 1 4.101-4.646h.002c2.69 0 4.663 2.527 4.01 5.136z"/>
        <path fill="#694B4B" d="M27.969 5.162l2.952 2.016c-13.346 9.854-10.852 26.755-10.852 26.755 3.991 3.992 3.991 13.97 3.991 13.97l3.992-3.991s-1.54-11.53 5.987-15.966c6.985-4.116 13.097-1.996 19.333-1.996 16.714 0 21.392-6.299 20.58-13.97C73.534 8.012 67.466-.256 52 .007 45.76.112 34.04 2.002 27.97 5.162z"/>
        <path fill="#5A4146" d="M26.805 24.204s-2.12-8.357 4.116-17.026c-13.346 9.854-10.852 26.755-10.852 26.755 3.991 3.992 3.991 13.97 3.991 13.97l3.992-3.991s-1.54-11.53 5.987-15.966c6.985-4.116 13.097-1.995 19.333-1.995 2.718 0 5.087-.182 7.197-.494-12.872.431-20.46-9.319-33.764-1.253z"/>
        <path fill="#E6AF78" d="M22.191 47.052l2.253 9.012a2.4 2.4 0 0 0 4.709-.284l1.152-9.218a4.133 4.133 0 0 0-4.102-4.646h-.001c-2.69 0-4.663 2.527-4.01 5.136z"/>
        <path fill="#E4EAF6" d="M77.945 111.765h-13.97a1.996 1.996 0 0 0-1.996 1.996v1.996H79.94v-1.996a1.996 1.996 0 0 0-1.995-1.996z"/>
        <path fill="#358FAE" d="M97.67 87.536l-24.69-5.81a4.147 4.147 0 0 1-1.04-.408L51.956 92.984 32.737 80.753a3.817 3.817 0 0 1-1.808.972l-24.666 5.81c-3.595.837-6.15 4.07-6.15 7.755v15.623a3.985 3.985 0 0 0 3.98 3.98h95.724a3.985 3.985 0 0 0 3.98-3.98V95.29c.022-3.685-2.533-6.918-6.127-7.754z"/>
        <g fill="#30B2DF">
            <path d="M33.732 76.57l18.223 16.414s-5.11 2.578-11.395 7.778c-1.289 1.062-3.256.633-3.957-.905l-8.568-18.855 2.713-4.07c.655-1.017 2.08-1.175 2.984-.362zM70.2 76.57L51.977 92.984s5.11 2.578 11.395 7.778c1.289 1.062 3.256.633 3.957-.905l8.568-18.833-2.713-4.07a1.966 1.966 0 0 0-2.984-.384z"/>
        </g>
    </g>
</svg>
