<svg xmlns="http://www.w3.org/2000/svg" width="30" height="24" viewBox="0 0 30 24">
    <path fill="#000" fill-rule="nonzero" d="M26.502 21.769a.5.5 0 0 1-.5-.5V9.5a.5.5 0 0 1 .5-.5h1.5V7.825l-13-5.778-13 5.778V9h1.5a.5.5 0 0 1 .5.5V20a.5.5 0 0 1-1 0V10h-1.5a.5.5 0 0 1-.5-.5v-2a.5.5 0 0 1 .3-.457l13.5-6a.5.5 0 0 1 .406 0l13.5 6a.5.5 0 0 1 .3.457v2a.5.5 0 0 1-.5.5h-1.506v11.269a.5.5 0 0 1-.5.5zm0-11.769a.5.5 0 0 1-.5-.5v-.672l-11-4.783-11 4.783V9.5a.5.5 0 0 1-1 0v-1a.5.5 0 0 1 .3-.459l11.5-5a.5.5 0 0 1 .4 0l11.5 5a.5.5 0 0 1 .3.459v1a.5.5 0 0 1-.5.5zm-3.5-4.444a.5.5 0 0 1-.5-.5V2.5a.5.5 0 1 1 1 0v2.556a.5.5 0 0 1-.5.5zm3 1.333a.5.5 0 0 1-.5-.5V2.5a.5.5 0 1 1 1 0v3.89a.5.5 0 0 1-.5.5v-.001zm.5-3.889h-4a.5.5 0 0 1-.5-.5v-2a.5.5 0 0 1 .5-.5h4a.5.5 0 0 1 .5.5v2a.5.5 0 0 1-.5.5zm-3.5-1h3V1h-3v1zm1.5 15h-4a.5.5 0 0 1-.5-.5v-5a.5.5 0 0 1 .5-.5h4a.5.5 0 0 1 .5.5v5a.5.5 0 0 1-.5.499V17zm-3.5-1h3v-4h-3v4zm4 1h-5a.5.5 0 1 1 0-1h5a.5.5 0 1 1 0 .999V17zm-15.5 0h-4a.5.5 0 0 1-.5-.5v-5a.5.5 0 0 1 .5-.5h4a.5.5 0 0 1 .5.5v5a.5.5 0 0 1-.5.499V17zm-3.5-1h3v-4h-3v4zm12.5 8h-7a.5.5 0 0 1-.5-.5v-12a.5.5 0 0 1 .5-.5h7a.5.5 0 0 1 .5.5v12a.5.5 0 0 1-.5.499V24zm-6.5-1h6V12h-6v11zm-2-6h-5a.5.5 0 1 1 0-1h5a.5.5 0 1 1 0 .999V17zm-.5-3h-4a.5.5 0 1 1 0-1h4a.5.5 0 0 1 0 1zm15 0h-4a.5.5 0 1 1 0-1h4a.5.5 0 0 1 0 1zm-11 4.024a.525.525 0 1 1 .525-.525.544.544 0 0 1-.525.525zm-7.943 4.017a.5.5 0 0 1-.3-.1.422.422 0 0 0-.556-.056.5.5 0 1 1-.532-.847 1.394 1.394 0 0 1 1.683.1.5.5 0 0 1-.291.903h-.004zm19-.029a.5.5 0 0 1-.275-.083.424.424 0 0 0-.559-.027.5.5 0 0 1-.576-.817 1.4 1.4 0 0 1 1.686.01.5.5 0 0 1-.27.917h-.006zm4.941 1.987h-11a.5.5 0 0 1-.5-.5v-.5a1.981 1.981 0 0 1 1.182-1.818 1.992 1.992 0 0 1 2.5-1.064 2.977 2.977 0 0 1 4.988.527 2.5 2.5 0 0 1 3.335 2.355v.5a.5.5 0 0 1-.503.5H29.5zm-10.5-1h10.002a1.5 1.5 0 0 0-2.326-1.25.5.5 0 0 1-.757-.283 2 2 0 0 0-1.917-1.467c-.715 0-1.375.385-1.725 1.009a.5.5 0 0 1-.714.164.992.992 0 0 0-1.512.542.5.5 0 0 1-.335.334.991.991 0 0 0-.714.951H19zm-7.5 1H.5a.5.5 0 0 1-.5-.5v-.5a2.5 2.5 0 0 1 2.4-2.5 2.987 2.987 0 0 1 4.922-.384c.916-.33 1.937.05 2.413.9a2 2 0 0 1 2.267 1.984v.5a.5.5 0 0 1-.5.5H11.5zm-10.5-1h10.002a1.008 1.008 0 0 0-1.372-.926.5.5 0 0 1-.669-.333.993.993 0 0 0-1.521-.568.5.5 0 0 1-.714-.164 1.976 1.976 0 0 0-1.724-1.009 2 2 0 0 0-1.84 1.216.5.5 0 0 1-.511.3l-.083-.01a.493.493 0 0 0-.067-.008 1.5 1.5 0 0 0-1.499 1.502H1z" opacity=".15"/>
</svg>
