<svg xmlns="http://www.w3.org/2000/svg" width="27" height="23" viewBox="0 0 27 23">
    <path fill="#000" fill-rule="nonzero" d="M24.75 22.999H2.25a.446.446 0 0 1-.45-.442V7.962H.45A.447.447 0 0 1 0 7.519v-1.77c0-.18.11-.34.278-.407L13.329.034a.455.455 0 0 1 .344 0l13.05 5.308a.441.441 0 0 1 .278.408v1.769a.447.447 0 0 1-.45.443h-1.346v14.595a.446.446 0 0 1-.455.442zm-22.051-.884h21.606v-14.6a.446.446 0 0 1 .45-.442h1.35V6.042L13.505.917.905 6.042v1.03h1.35a.446.446 0 0 1 .45.443v14.6h-.006zM24.75 7.962a.447.447 0 0 1-.45-.443v-.585L13.5 2.688 2.7 6.934v.585a.45.45 0 0 1-.9 0v-.884c0-.182.113-.345.283-.411l11.25-4.425a.459.459 0 0 1 .334 0l11.25 4.423c.17.066.282.229.283.41v.885a.447.447 0 0 1-.45.445zm-4.5 12.383H6.75a1.34 1.34 0 0 1-1.35-1.327V15.48a1.341 1.341 0 0 1 1.35-1.327h13.5a1.34 1.34 0 0 1 1.35 1.327v3.538a1.34 1.34 0 0 1-1.35 1.327zm-13.5-5.307a.447.447 0 0 0-.45.442v3.538a.447.447 0 0 0 .45.443h13.5a.447.447 0 0 0 .45-.443V15.48a.446.446 0 0 0-.45-.442H6.75zm12.15 3.1a.885.885 0 1 1 .9-.885.894.894 0 0 1-.9.88v.005zm-10.8 0a.885.885 0 1 1 .9-.885.893.893 0 0 1-.9.88v.005zm-1.039-3.1a.448.448 0 0 1-.422-.6l1.8-4.82a1.2 1.2 0 0 1 1.139-.783h7.84a1.2 1.2 0 0 1 1.14.786l1.8 4.817a.44.44 0 0 1-.268.567.452.452 0 0 1-.577-.263l-1.8-4.82a.3.3 0 0 0-.294-.2h-7.84a.3.3 0 0 0-.293.2l-1.8 4.82a.452.452 0 0 1-.425.295zm1.039 7.96a1.787 1.787 0 0 1-1.8-1.768v-1.331a.446.446 0 0 1 .45-.442h2.7a.446.446 0 0 1 .45.442v1.327a1.787 1.787 0 0 1-1.8 1.773zm-.9-2.653v.885a.9.9 0 0 0 1.8 0v-.885H7.2zm11.705 2.654a1.787 1.787 0 0 1-1.8-1.77V19.9a.446.446 0 0 1 .45-.442h2.7a.446.446 0 0 1 .45.442v1.327a1.787 1.787 0 0 1-1.8 1.773zm-.9-2.654v.885a.9.9 0 0 0 1.8 0v-.885h-1.8zm-2.25 0h-4.5a.446.446 0 0 1-.45-.442v-1.77a.446.446 0 0 1 .45-.441h4.5a.446.446 0 0 1 .45.442v1.765a.446.446 0 0 1-.455.446h.005zm-4.05-.884h3.6v-.885h-3.6v.885z" opacity=".15"/>
</svg>
