<svg xmlns="http://www.w3.org/2000/svg" width="24" height="26" viewBox="0 0 24 26">
    <path fill="#000" fill-rule="nonzero" d="M23.508 12.546c0 .39.11.837.225 1.31.195.792.415 1.691.132 2.567-.294.91-1.013 1.516-1.648 2.05-.357.3-.695.584-.906.876-.217.3-.384.715-.561 1.155-.308.766-.658 1.635-1.417 2.191-.753.551-1.68.618-2.496.678-.475.034-.923.067-1.28.184-.332.108-.698.34-1.086.585-.705.445-1.503.949-2.471.949-.968 0-1.766-.504-2.47-.95-.389-.245-.756-.476-1.087-.584-.357-.117-.805-.15-1.28-.184-.817-.06-1.743-.127-2.496-.678-.759-.556-1.109-1.425-1.417-2.191-.177-.44-.344-.855-.56-1.155-.212-.292-.55-.576-.907-.877-.635-.533-1.354-1.138-1.648-2.049-.283-.876-.063-1.775.132-2.568.116-.472.225-.919.225-1.31 0-.39-.11-.837-.225-1.31-.195-.792-.415-1.691-.132-2.567.294-.91 1.013-1.516 1.648-2.05.357-.3.695-.584.906-.877.217-.299.384-.714.561-1.154.308-.766.658-1.635 1.417-2.191.753-.551 1.68-.618 2.496-.678.475-.034.923-.067 1.28-.184.331-.108.698-.34 1.086-.585C10.234.504 11.032 0 12 0c.969 0 1.767.504 2.472.95.388.245.754.476 1.086.584.357.117.805.15 1.28.184.817.06 1.743.127 2.495.678.76.556 1.11 1.425 1.418 2.191.177.44.344.855.56 1.155.212.292.55.576.907.877.635.533 1.354 1.138 1.648 2.05.283.875.062 1.774-.132 2.567-.116.472-.225.919-.225 1.31zm-8.515-5.928a.565.565 0 0 1 .208.764L9.757 17.17a.549.549 0 0 1-.75.212.565.565 0 0 1-.208-.764l5.444-9.788a.545.545 0 0 1 .75-.212zm-4.45 5.107a2.708 2.708 0 0 1-1.654 1.271 2.71 2.71 0 0 1-2.069-.271 2.708 2.708 0 0 1-1.271-1.654A2.709 2.709 0 0 1 5.82 9a2.708 2.708 0 0 1 1.655-1.27 2.708 2.708 0 0 1 2.069.271c.63.364 1.082.951 1.27 1.655a2.708 2.708 0 0 1-.27 2.068zm-3.118-.05c.35.203.759.256 1.15.151.39-.105.717-.355.919-.706.202-.35.255-.758.15-1.15a1.505 1.505 0 0 0-.706-.918A1.506 1.506 0 0 0 7.79 8.9c-.39.105-.717.356-.92.706-.201.35-.255.759-.15 1.15.105.39.356.717.706.919zm9.755.69c.63.364 1.082.952 1.271 1.655a2.708 2.708 0 0 1-.271 2.07 2.708 2.708 0 0 1-1.655 1.27 2.71 2.71 0 0 1-2.069-.271 2.709 2.709 0 0 1-1.27-1.655 2.709 2.709 0 0 1 .27-2.069 2.708 2.708 0 0 1 1.655-1.27 2.708 2.708 0 0 1 2.069.27zm-.05 3.119c.202-.35.256-.759.15-1.15a1.505 1.505 0 0 0-.705-.919 1.506 1.506 0 0 0-1.15-.15c-.39.105-.717.355-.919.706-.202.35-.255.758-.15 1.15.104.39.355.716.706.918.35.202.758.256 1.149.151.39-.105.717-.356.92-.706zm4.96-1.221c-.136-.55-.275-1.12-.275-1.718 0-.597.14-1.167.274-1.717.154-.628.3-1.22.166-1.634-.143-.445-.62-.845-1.124-1.27-.42-.353-.855-.719-1.19-1.18-.338-.469-.553-1.002-.76-1.518-.245-.609-.477-1.184-.845-1.453-.361-.265-.973-.31-1.622-.357-.554-.04-1.127-.082-1.68-.262-.531-.174-1.005-.473-1.464-.763-.56-.354-1.09-.688-1.57-.688s-1.01.334-1.57.688c-.459.29-.933.59-1.464.763-.553.18-1.126.222-1.68.262-.649.048-1.261.092-1.622.357-.368.269-.6.844-.845 1.453-.207.516-.422 1.05-.76 1.517-.335.462-.77.828-1.19 1.182-.504.424-.98.824-1.124 1.269-.134.414.012 1.006.165 1.634.135.55.275 1.12.275 1.718 0 .597-.14 1.167-.275 1.717-.153.628-.299 1.22-.165 1.634.143.445.62.845 1.124 1.27.42.353.855.719 1.19 1.18.338.469.553 1.002.76 1.518.245.609.477 1.184.845 1.453.36.265.973.31 1.621.357.555.04 1.128.082 1.68.262.532.174 1.006.473 1.464.763.561.354 1.09.688 1.571.688.48 0 1.01-.334 1.57-.688.459-.29.933-.59 1.464-.763.553-.18 1.126-.222 1.68-.262.649-.048 1.261-.092 1.622-.357.368-.269.6-.844.845-1.453.207-.516.422-1.05.76-1.517.335-.462.77-.828 1.19-1.182.504-.424.98-.824 1.124-1.269.134-.414-.012-1.006-.166-1.634z" opacity=".15"/>
</svg>
