<svg xmlns="http://www.w3.org/2000/svg" width="19" height="16" viewBox="0 0 19 16">
    <path fill="#FFF" fill-rule="nonzero" d="M13.248 7.049L9.5 10.796a3.838 3.838 0 0 0 3.747-3.747zm5.328.205c.325.382.325.937 0 1.319-.165.195-4.116 4.767-9.166 4.767a8.959 8.959 0 0 1-2.177-.277l1.422-1.422c.248.027.5.043.755.043 3.528 0 6.496-2.709 7.524-3.77a15.27 15.27 0 0 0-2.486-2.065l1.185-1.185c1.75 1.208 2.857 2.489 2.943 2.59zm-1.252-5.712c0 .051-.02.1-.056.135L3.174 15.771a.191.191 0 0 1-.27 0L1.552 14.42a.19.19 0 0 1 0-.27l2.458-2.458C1.79 10.361.343 8.689.244 8.573a1.014 1.014 0 0 1 0-1.319C.409 7.06 4.36 2.487 9.41 2.487c1.137 0 2.217.232 3.211.594L15.646.056a.19.19 0 0 1 .27 0l1.352 1.351a.19.19 0 0 1 .056.135zM1.886 7.914c.577.596 1.77 1.711 3.327 2.575l1.17-1.17a3.821 3.821 0 0 1-.185-4.467C4.16 5.73 2.58 7.197 1.887 7.914z" opacity=".2"/>
</svg>
