<svg xmlns="http://www.w3.org/2000/svg" width="17" height="19" viewBox="0 0 17 19">
    <path fill="#000" fill-rule="evenodd" d="M14.938.474H10.43A.744.744 0 0 0 9.729 0H7.271a.744.744 0 0 0-.702.474H2.062C.925.474 0 1.362 0 2.453v1.8c0 .395.334.715.746.715h1.402v13.317c0 .395.334.715.746.715h11.212c.412 0 .746-.32.746-.715V4.968h1.402c.412 0 .746-.32.746-.715v-1.8c0-1.091-.925-1.979-2.062-1.979zM3.639 17.57h9.722V4.97H3.639v12.6zM15.51 3.537H1.49V2.453a.56.56 0 0 1 .571-.548h12.876a.56.56 0 0 1 .57.548v1.084zM6.5 15c-.276 0-.5-.321-.5-.718V6.718C6 6.32 6.224 6 6.5 6s.5.321.5.718v7.564c0 .397-.224.718-.5.718zm4 0c-.276 0-.5-.321-.5-.718V6.718c0-.397.224-.718.5-.718s.5.321.5.718v7.564c0 .397-.224.718-.5.718z" opacity=".2"/>
</svg>
