<svg xmlns="http://www.w3.org/2000/svg" width="27" height="29" viewBox="0 0 27 29">
    <path fill="#000" fill-rule="nonzero" d="M1 25H.5a.5.5 0 0 1 0-1H1a.5.5 0 0 1 0 1zm22 0H4a.5.5 0 0 1-.5-.5v-22A.5.5 0 0 1 4 2h19a.5.5 0 0 1 .5.5v22a.5.5 0 0 1-.5.5zM4.5 24h18V3h-18v21zM25 25H2a.5.5 0 0 1-.5-.5V.5A.5.5 0 0 1 2 0h23a.5.5 0 0 1 .5.5v24a.5.5 0 0 1-.5.5zM2.5 24h22V1h-22v23zm24 1H26a.5.5 0 0 1 0-1h.5a.5.5 0 0 1 0 1zM17 23h-.5a.5.5 0 0 1 0-1h.5a.5.5 0 0 1 0 1zm-3.5 0H13a.5.5 0 0 1 0-1h.5a.5.5 0 0 1 0 1zm1.5-4a.5.5 0 1 1 .006-1A.5.5 0 0 1 15 19zm11 8H1a.5.5 0 0 1-.5-.5v-2A.5.5 0 0 1 1 24h25a.5.5 0 0 1 .5.5v2a.5.5 0 0 1-.5.5zM1.5 26h24v-1h-24v1zM5 29H3a.5.5 0 0 1-.5-.5v-2A.5.5 0 0 1 3 26h2a.5.5 0 0 1 .5.5v2a.5.5 0 0 1-.5.5zm-1.5-1h1v-1h-1v1zM24 29h-2a.5.5 0 0 1-.5-.5v-2a.5.5 0 0 1 .5-.5h2a.5.5 0 0 1 .5.5v2a.5.5 0 0 1-.5.5zm-1.5-1h1v-1h-1v1zM16 25h-2a.5.5 0 0 1-.485-.379l-.5-2A.5.5 0 0 1 13.5 22h3a.5.5 0 0 1 .485.621l-.5 2A.5.5 0 0 1 16 25zm-1.61-1h1.22l.25-1h-1.72l.25 1zM23 14H4a.5.5 0 0 1 0-1h19a.5.5 0 0 1 0 1zm-9.5 0a.5.5 0 0 1-.5-.5v-11a.5.5 0 0 1 1 0v11a.5.5 0 0 1-.5.5zm1.333 9a.5.5 0 0 1-.5-.5c.004-.326.147-.635.393-.85a.208.208 0 0 0 .107-.15.155.155 0 0 0-.057-.116 1.494 1.494 0 0 1-.276-1.212.5.5 0 1 1 .993.119.552.552 0 0 0 .089.5 1.1 1.1 0 0 1 .248.7 1.149 1.149 0 0 1-.393.85.208.208 0 0 0-.107.15.5.5 0 0 1-.497.509zm1.069-1.833a1.553 1.553 0 0 1-.9-.292c-.542.38-1.265.38-1.807 0a1.544 1.544 0 0 1-.562-1.717 1.542 1.542 0 0 1 .905-2.786 1.542 1.542 0 0 1 2.929 0 2.486 2.486 0 0 1-.567 4.795h.002zm-.826-.987h.007l.386-.233a.533.533 0 0 0 .433.216.537.537 0 0 0 .438-.856l-.041-.042a.5.5 0 0 1 .267-.829l.166.43.006-.005-.1-.438a.539.539 0 0 0 .338-.679.547.547 0 0 0-.682-.348l-.054.027a.5.5 0 0 1-.7-.512l.46-.024v-.007l-.448-.038a.542.542 0 0 0-1.083.009l.009.063a.5.5 0 0 1-.7.509l.121-.446h-.022l-.177.415a.542.542 0 0 0-.325 1.033l.06.01a.5.5 0 0 1 .267.829l-.385-.251v.007l.341.293a.541.541 0 0 0 .125.749c.243.17.577.117.756-.119l.03-.056a.52.52 0 0 1 .868 0l-.361.293zM4 14a.5.5 0 0 1-.01-1c3.731-.073 6.329-4.39 6.319-10.5a.5.5 0 0 1 1 0c.012 6.687-2.99 11.416-7.3 11.5H4zm2.432 11h-.026a.5.5 0 0 1-.473-.525c.045-.856.068-1.7.068-2.519a65.25 65.25 0 0 0-.791-8.378.5.5 0 0 1 .988-.154c.45 2.824.717 5.674.8 8.532 0 .832-.023 1.7-.069 2.571a.5.5 0 0 1-.497.473zM23 14h-.01c-4.309-.085-7.31-4.814-7.3-11.5a.5.5 0 0 1 1 0c-.011 6.109 2.587 10.426 6.319 10.5A.5.5 0 0 1 23 14zm-2.432 11a.5.5 0 0 1-.5-.474 49.127 49.127 0 0 1-.069-2.571 66.39 66.39 0 0 1 .8-8.532.5.5 0 0 1 .988.154 65.249 65.249 0 0 0-.791 8.378c0 .815.023 1.663.068 2.519a.5.5 0 0 1-.473.525h-.023V25z" opacity=".15"/>
</svg>
