<svg xmlns="http://www.w3.org/2000/svg" width="28" height="31" viewBox="0 0 28 31">
    <path fill="#D3D3D3" fill-rule="nonzero" d="M18.5 30.332h-9a.5.5 0 0 1-.5-.5v-7a.5.5 0 0 1 .5-.5h9a.5.5 0 0 1 .5.5v7a.5.5 0 0 1-.5.5zm-8.5-1h8v-6h-8v6zm4 1a.5.5 0 0 1-.5-.5v-7a.5.5 0 0 1 1 0v7a.5.5 0 0 1-.5.5zm-1.5-2.975a.525.525 0 1 1 .525-.525.544.544 0 0 1-.525.526zm3 0a.525.525 0 1 1 .525-.525.544.544 0 0 1-.525.526zm-9-9.025a.5.5 0 0 1-.5-.5v-4a.5.5 0 0 1 1 0v4a.5.5 0 0 1-.5.501zm3 0a.5.5 0 0 1-.5-.5v-4a.5.5 0 0 1 1 0v4a.5.5 0 0 1-.5.501zm3 0h-9a.5.5 0 0 1-.5-.5v-4a.5.5 0 0 1 .5-.5h9a.5.5 0 0 1 .5.5v4a.5.5 0 0 1-.5.501zm-8.5-1h8v-3H4v3zm8.5 4h-9a.5.5 0 0 1-.5-.5v-3a.5.5 0 0 1 .5-.5h9a.5.5 0 0 1 .5.5v3a.5.5 0 0 1-.5.501zm-8.5-1h8v-2H4v2zm9-2H3a.5.5 0 1 1 0-1h10a.5.5 0 0 1 0 1.001zm5.5 0a.5.5 0 0 1-.5-.5v-4a.5.5 0 0 1 1 0v4a.5.5 0 0 1-.5.501zm3 0a.5.5 0 0 1-.5-.5v-4a.5.5 0 0 1 1 0v4a.5.5 0 0 1-.5.501zm3 0h-9a.5.5 0 0 1-.5-.5v-4a.5.5 0 0 1 .5-.5h9a.5.5 0 0 1 .5.5v4a.5.5 0 0 1-.5.501zm-8.5-1h8v-3h-8v3zm8.5 4h-9a.5.5 0 0 1-.5-.5v-3a.5.5 0 0 1 .5-.5h9a.5.5 0 0 1 .5.5v3a.5.5 0 0 1-.5.501zm-8.5-1h8v-2h-8v2zm9-2H15a.5.5 0 1 1 0-1h10a.5.5 0 0 1 0 1.001zm-18.5-9a.5.5 0 0 1-.5-.5v-4a.5.5 0 0 1 1 0v4a.5.5 0 0 1-.5.501zm3 0a.5.5 0 0 1-.5-.5v-4a.5.5 0 0 1 1 0v4a.5.5 0 0 1-.5.501zm3 0h-9a.5.5 0 0 1-.5-.5v-4a.5.5 0 0 1 .5-.5h9a.5.5 0 0 1 .5.5v4a.5.5 0 0 1-.5.501zm-8.5-1h8v-3H4v3zm8.5 4h-9a.5.5 0 0 1-.5-.5v-3a.5.5 0 0 1 .5-.5h9a.5.5 0 0 1 .5.5v3a.5.5 0 0 1-.5.501zm-8.5-1h8v-2H4v2zm9-2H3a.5.5 0 1 1 0-1h10a.5.5 0 0 1 0 1.001zm5.5 0a.5.5 0 0 1-.5-.5v-4a.5.5 0 0 1 1 0v4a.5.5 0 0 1-.5.501zm3 0a.5.5 0 0 1-.5-.5v-4a.5.5 0 0 1 1 0v4a.5.5 0 0 1-.5.501zm3 0h-9a.5.5 0 0 1-.5-.5v-4a.5.5 0 0 1 .5-.5h9a.5.5 0 0 1 .5.5v4a.5.5 0 0 1-.5.501zm-8.5-1h8v-3h-8v3zm8.5 4h-9a.5.5 0 0 1-.5-.5v-3a.5.5 0 0 1 .5-.5h9a.5.5 0 0 1 .5.5v3a.5.5 0 0 1-.5.501zm-8.5-1h8v-2h-8v2zm9-2H15a.5.5 0 1 1 0-1h10a.5.5 0 0 1 0 1.001zm-15.5 19h-8a.5.5 0 1 1 0-1h8a.5.5 0 0 1 0 1zm17-25h-25a.5.5 0 1 1 0-1h25a.501.501 0 0 1 0 1.002v-.002zm1-2H.5a.5.5 0 1 1 0-1h27a.501.501 0 0 1 0 1.002v-.002zm-1 27h-8a.5.5 0 1 1 0-1h8a.5.5 0 0 1 0 1zm0 2h-25a.5.5 0 0 1-.5-.5v-29a.5.5 0 0 1 .5-.5h25a.5.5 0 0 1 .5.5v29a.5.5 0 0 1-.5.5zm-24.5-1h24v-28H2v28z"/>
</svg>
