<svg xmlns="http://www.w3.org/2000/svg" width="27" height="28" viewBox="0 0 27 28">
    <path fill="#D3D3D3" fill-rule="nonzero" d="M26.55 5.62a.45.45 0 0 1-.447-.4 1.045 1.045 0 0 0-1.012-.96.976.976 0 0 0-.628.231.449.449 0 0 1-.666-.1 1.213 1.213 0 0 0-1.016-.57 1.185 1.185 0 0 0-.833.348.45.45 0 1 1-.632-.64 2.075 2.075 0 0 1 2.956.022c.255-.124.535-.19.819-.19a1.944 1.944 0 0 1 1.907 1.761.45.45 0 0 1-.4.5l-.048-.003zm-2.7 18.448H2.25a.45.45 0 0 1-.45-.45v-8.1a.45.45 0 0 1 .45-.45h21.6a.45.45 0 0 1 .45.45v8.1a.45.45 0 0 1-.45.448v.002zm-21.15-.9h20.7v-7.2H2.704v7.2H2.7zm10.35.9a.45.45 0 0 1-.45-.45v-8.1a.45.45 0 0 1 .9 0v8.1a.451.451 0 0 1-.45.448v.002zm2.7 0a.45.45 0 0 1-.45-.45v-8.1a.45.45 0 0 1 .9 0v8.1a.45.45 0 0 1-.45.448v.002zm2.7 0a.451.451 0 0 1-.45-.45v-8.1a.45.45 0 0 1 .9 0v8.1a.45.45 0 0 1-.45.448v.002zm2.7 0a.451.451 0 0 1-.45-.45v-8.1a.45.45 0 0 1 .9 0v8.1a.45.45 0 0 1-.45.448v.002zm-10.8 0a.45.45 0 0 1-.45-.45v-8.1a.45.45 0 0 1 .9 0v8.1a.451.451 0 0 1-.45.448v.002zm-2.7 0a.45.45 0 0 1-.45-.45v-8.1a.45.45 0 0 1 .9 0v8.1a.451.451 0 0 1-.45.448v.002zm-2.7 0a.45.45 0 0 1-.45-.45v-8.1a.45.45 0 0 1 .9 0v8.1a.451.451 0 0 1-.45.448v.002zm18.9-5.4H2.25a.45.45 0 0 1 0-.9h21.6a.45.45 0 1 1 0 .898v.002zm0 2.7H2.25a.45.45 0 1 1 0-.9h21.6a.45.45 0 0 1 0 .898v.002zm1.8 4.5H.45a.45.45 0 1 1 0-.9h25.2a.45.45 0 1 1 0 .898v.002zm-17.1-11.7h-3.6a.449.449 0 0 1-.45-.45v-8.1a.449.449 0 0 1 .45-.45h3.6a.45.45 0 0 1 .45.45v8.1a.45.45 0 0 1-.45.448v.002zm-3.15-.9h2.7v-7.2H5.4v7.2zm20.25 14.4H.45a.451.451 0 0 1-.45-.45v-13.5a.45.45 0 0 1 .45-.449h25.2a.449.449 0 0 1 .45.45v13.5a.45.45 0 0 1-.45.447v.002zm-24.751-.9h24.3V14.166H.904v12.6l-.005.002zm7.651-18.9h-3.6a.45.45 0 1 1 0-.9h3.6a.45.45 0 1 1 0 .898v.002zm6.3 6.3h-3.6a.449.449 0 0 1-.45-.45v-8.1a.449.449 0 0 1 .45-.45h3.6a.45.45 0 0 1 .45.45v8.1a.45.45 0 0 1-.45.448v.002zm-3.15-.9h2.7v-7.2h-2.7v7.2zm3.15-5.4h-3.6a.45.45 0 1 1 0-.9h3.6a.45.45 0 0 1 0 .898v.002zm6.3 6.3h-3.6a.45.45 0 0 1-.45-.45v-8.1a.45.45 0 0 1 .45-.45h3.6a.449.449 0 0 1 .45.45v8.1a.449.449 0 0 1-.45.448v.002zm-3.15-.9h2.7v-7.2h-2.696v7.2H18zm3.15-5.4h-3.6a.45.45 0 0 1 0-.9h3.6a.45.45 0 0 1 0 .898v.002zm-15.3-3.6a.449.449 0 0 1-.45-.45 2.372 2.372 0 0 1 1-1.969 2.693 2.693 0 0 1 2.175-.4 2.312 2.312 0 0 1 2.894-.466.45.45 0 0 1-.448.78 1.477 1.477 0 0 0-1.95.481.448.448 0 0 1-.5.141 1.836 1.836 0 0 0-1.652.2c-.4.281-.635.744-.623 1.233a.45.45 0 0 1-.446.448v.002zm12.6 0a.45.45 0 0 1-.45-.45 2.373 2.373 0 0 1 1.004-1.968 2.692 2.692 0 0 1 2.175-.4 2.312 2.312 0 0 1 2.894-.466.45.45 0 0 1-.449.78 1.477 1.477 0 0 0-1.95.481.448.448 0 0 1-.5.141 1.834 1.834 0 0 0-1.651.2c-.401.28-.635.744-.624 1.233a.449.449 0 0 1-.449.447v.002zm-6.3 0a.408.408 0 0 1-.061 0 .449.449 0 0 1-.386-.506 2.027 2.027 0 0 1 1.972-1.747 2.257 2.257 0 0 1 3.93-.356.45.45 0 0 1-.745.506 1.355 1.355 0 0 0-2.435.432.448.448 0 0 1-.515.336 1.125 1.125 0 0 0-1.315.949.45.45 0 0 1-.444.384l-.001.002z"/>
</svg>
