<svg xmlns="http://www.w3.org/2000/svg" width="10" height="12" viewBox="0 0 10 12">
    <path fill="#919191" fill-rule="nonzero" d="M1.606.18h3.8a7.438 7.438 0 0 1 2.142.142A3.618 3.618 0 0 1 9.957 3.04a3.11 3.11 0 0 1-.464 2.22A3.675 3.675 0 0 1 7.44 6.864a6.195 6.195 0 0 1-1.731.107H2.605v1.474c.207.032.417.038.626.017h5.745c.044.324.05.652.018.977a2.468 2.468 0 0 1-.626.018H2.605v2.254H1.604V9.47a2.067 2.067 0 0 0-.518-.017H0v-.996h1.588c.025-.146.031-.296.018-.444v-1.03h-.018v-.017H0v-.995h1.588v-.018h.018V.18zm1.016.995a1.743 1.743 0 0 0-.018.444v4.335c.136.023.274.029.41.018H6.78c.188-.046.38-.082.571-.107.439-.13.83-.39 1.127-.746.2-.273.35-.58.446-.906a2.562 2.562 0 0 0-.179-1.705 2.281 2.281 0 0 0-1.284-1.191 5.848 5.848 0 0 0-.821-.142c-.096-.02-.199.019-.286 0l-.714.017a3.444 3.444 0 0 0-.625 0 3.389 3.389 0 0 0-.626 0l-.57-.017H2.622z"/>
</svg>
