<svg xmlns="http://www.w3.org/2000/svg" width="25" height="26" viewBox="0 0 25 26">
    <path fill="#D3D3D3" fill-rule="nonzero" d="M18.75 25.337H6.25a.417.417 0 0 1-.417-.416v-10c0-.23.187-.416.417-.416h12.5c.23 0 .416.186.417.416v10c0 .23-.187.416-.417.416zm-12.084-.833h11.668v-9.167H6.666v9.167zm17.918.833H.416A.416.416 0 0 1 0 24.921V12.837C0 5.934 5.596.337 12.5.337S25 5.934 25 12.837V24.92c0 .23-.186.417-.416.417zM.833 24.504h23.334V12.837c0-6.443-5.223-11.667-11.667-11.667S.833 6.394.833 12.837v11.667zm22.084.833H2.083a.417.417 0 0 1-.417-.416V12.837c0-5.983 4.85-10.834 10.834-10.834 5.983 0 10.834 4.85 10.834 10.834V24.92c0 .23-.187.417-.417.417zM2.5 24.504h20V12.837c0-5.522-4.477-10-10-10s-10 4.478-10 10v11.667zm6.25-13.332h-2.5a.417.417 0 0 1-.417-.417v-2.5c0-.23.187-.416.417-.416h2.5c.23 0 .416.186.417.416v2.5a.417.417 0 0 1-.417.414v.003zm-2.084-.835h1.667V8.671H6.666v1.666zm4.584 15H7.917a.417.417 0 0 1-.417-.416v-2.5c0-.23.187-.417.417-.417h3.333c.23 0 .417.187.417.417v2.5c0 .23-.187.416-.417.416zm-2.917-.833h2.5v-1.667h-2.5V24.504zm2.917-1.666H7.917a.417.417 0 0 1-.417-.417v-2.5c0-.23.187-.417.417-.417h3.333c.23 0 .417.187.417.417v2.5c0 .23-.187.416-.417.416v.001zm-2.917-.834h2.5v-1.667h-2.5V22.004zm2.917-1.667H7.917a.417.417 0 0 1-.417-.417v-2.5c0-.23.187-.416.417-.416h3.333c.23 0 .416.186.417.416v2.5c0 .23-.187.417-.417.417zm-2.917-.834h2.5v-1.666h-2.5v1.666zm6.25 3.334H11.25a.417.417 0 0 1-.417-.417v-2.5c0-.23.187-.417.417-.417h3.333c.23 0 .417.187.417.417v2.5c0 .23-.187.417-.417.417zm-2.916-.834h2.5v-1.666h-2.5v1.666zm2.916 3.334H11.25a.417.417 0 0 1-.417-.416v-2.5c0-.23.187-.417.417-.417h3.333c.23 0 .417.187.417.417v2.5a.416.416 0 0 1-.417.416zm-2.916-.833h2.5v-1.667h-2.5V24.504zm5.417.833h-2.5a.416.416 0 0 1-.416-.416v-2.5c0-.23.186-.416.416-.417h2.5c.23 0 .416.187.416.417v2.5c0 .23-.186.416-.416.416zm-2.081-.836h1.667v-1.664h-1.667v1.666-.002zm-1.25-13.332h-2.5a.417.417 0 0 1-.417-.417v-2.5c0-.23.187-.416.417-.416h2.5c.23 0 .416.186.417.416v2.5a.417.417 0 0 1-.42.417h.003zm-2.086-.832h1.666V8.671h-1.666v1.666zm7.083.834h-2.5a.417.417 0 0 1-.417-.417v-2.5c0-.23.187-.416.417-.416h2.5c.23 0 .416.186.417.416v2.5a.417.417 0 0 1-.417.415v.002zm-2.083-.834h1.667V8.671h-1.667v1.666z"/>
</svg>
