<svg xmlns="http://www.w3.org/2000/svg" width="27" height="27" viewBox="0 0 27 27">
    <path fill="#D3D3D3" fill-rule="nonzero" d="M18.899 17.063a.448.448 0 0 1-.318-.132l-1.482-1.472-1.482 1.472a.451.451 0 0 1-.636 0l-1.482-1.472-1.482 1.472a.451.451 0 0 1-.636 0l-1.482-1.472-1.482 1.472a.451.451 0 0 1-.636 0l-.765-.759a.445.445 0 0 1 0-.633.453.453 0 0 1 .636 0l.446.444L9.58 14.51a.452.452 0 0 1 .637 0l1.482 1.473 1.482-1.473a.451.451 0 0 1 .636 0l1.482 1.473 1.482-1.473a.451.451 0 0 1 .636 0l1.482 1.473.446-.444a.454.454 0 0 1 .637 0 .447.447 0 0 1 0 .633l-.765.759a.448.448 0 0 1-.318.132zm-10.8 5.367a.449.449 0 0 1-.317-.131l-1.483-1.473-1.481 1.473a.452.452 0 0 1-.637 0l-.246-.245a.445.445 0 0 1 0-.633.452.452 0 0 1 .556-.063l1.49-1.481a.454.454 0 0 1 .637 0l1.481 1.473 1.482-1.473a.452.452 0 0 1 .635 0l1.447 1.425a.445.445 0 0 1 0 .633.453.453 0 0 1-.636 0l-1.128-1.11-1.483 1.474a.452.452 0 0 1-.317.131zm14.4 0a.451.451 0 0 1-.318-.131l-1.482-1.473-1.482 1.473a.451.451 0 0 1-.636 0l-1.483-1.473-1.126 1.115a.453.453 0 0 1-.636 0 .445.445 0 0 1 0-.633l1.444-1.43a.453.453 0 0 1 .636 0l1.482 1.473 1.482-1.473a.453.453 0 0 1 .636 0l1.49 1.481a.453.453 0 0 1 .557.063.447.447 0 0 1 0 .633l-.247.245a.451.451 0 0 1-.317.13zm-4.783 3.575H9.278a.447.447 0 0 1-.4-.654l4.221-8.046a.47.47 0 0 1 .8 0l4.219 8.051a.448.448 0 0 1-.402.649zm-7.7-.894h6.954l-3.477-6.636-3.477 6.636zm5.283-13.416a.451.451 0 0 1-.318-.131l-1.482-1.473-1.482 1.473a.451.451 0 0 1-.636 0l-1.283-1.274a.447.447 0 0 1 0-.633.452.452 0 0 1 .637 0l.964.958 1.482-1.473a.453.453 0 0 1 .636 0l1.482 1.473.964-.958a.451.451 0 0 1 .768.316.445.445 0 0 1-.132.317l-1.282 1.274a.451.451 0 0 1-.318.131zm9.457 14.31H2.246a.447.447 0 0 1-.4-.654L13.099 3.885a.47.47 0 0 1 .8 0l11.213 21.4a.44.44 0 0 1 .1.277.448.448 0 0 1-.456.443zm-21.768-.894h21.017L13.499 5.06 2.988 25.111zM13.499 4.539a.449.449 0 0 1-.45-.448V.45a.45.45 0 0 1 .9 0v3.641a.45.45 0 0 1-.45.448zm-1.272 2.427a.448.448 0 0 1-.389-.222l-2.344-4a.444.444 0 0 1 .162-.611.451.451 0 0 1 .615.161l2.345 4a.447.447 0 0 1-.391.672h.002zm2.552 0a.447.447 0 0 1-.389-.672l2.344-4a.453.453 0 0 1 .824.11.445.445 0 0 1-.046.34l-2.344 4a.448.448 0 0 1-.391.222h.002zm11.768 19.039H.447a.447.447 0 0 1 0-.894h26.1a.447.447 0 0 1 0 .894z"/>
</svg>
