<svg xmlns="http://www.w3.org/2000/svg" width="19" height="19" viewBox="0 0 19 19">
    <path fill="#FFF" fill-opacity=".323" fill-rule="nonzero" d="M18.456 10.242a2.14 2.14 0 0 1-.697.208 7.83 7.83 0 0 1-1.167-.068c-.957-.019-1.916.002-2.873-.014l-1.537-.043c-.486.03-.973.021-1.457-.025a.708.708 0 0 0-.458.043 2.48 2.48 0 0 0-.011.673l-.026 1.457-.046 2.87a11.232 11.232 0 0 0-.011 1.538l-.025.456c-.01.54-.047 1.531-.937 1.37-.743-.135-.669-1.228-.595-1.683l.02-2.113.032-1.794a7 7 0 0 0 .003-.995l.042-1.402a.57.57 0 0 0-.026-.44 2.566 2.566 0 0 0-.673-.011l-1.486-.025-2.841-.044a11.168 11.168 0 0 0-1.538-.01l-.456-.024c-.54-.01-1.53-.046-1.368-.935.162-.89 1.591-.585 2.105-.573 1.498.034 2.997.016 4.495.042l1.25.02c.183.044.375.041.558-.007.04-.16.048-.326.025-.49.025-.42.017-.83.022-1.25.006-.326.045-.652.05-.976.027-1.272.016-2.546.035-3.819.001-.167.045-.338.042-.506A1.96 1.96 0 0 1 8.94.777a.892.892 0 0 1 .87-.441c.826.155.59 1.136.58 1.564-.036 1.655-.026 3.312-.054 4.966-.009.484-.012.97-.025 1.457a.573.573 0 0 0 .026.44c.28.041.563.046.844.014l1.859.032 3.294.072 1.454-.009c.142.02.282.051.42.093.084.052.175.095.269.129a.828.828 0 0 1-.02 1.148z"/>
</svg>
