<svg xmlns="http://www.w3.org/2000/svg" width="23" height="18" viewBox="0 0 23 18">
    <path fill="#FFF" fill-opacity=".323" fill-rule="nonzero" d="M20.192 0H2.812A2.817 2.817 0 0 0 0 2.816v11.892a2.817 2.817 0 0 0 2.813 2.816h17.374A2.817 2.817 0 0 0 23 14.708V2.821A2.814 2.814 0 0 0 20.192 0zm1.713 14.86c0 .865-.698 1.569-1.556 1.569H2.651a1.564 1.564 0 0 1-1.556-1.57V2.665c0-.865.698-1.569 1.556-1.569h17.693c.858 0 1.556.704 1.556 1.57V14.86h.005zm-7.98-6.255l5.568-5.245a.695.695 0 0 0 .047-.945.618.618 0 0 0-.9-.049l-7.68 7.238L9.464 8.2c-.005-.005-.01-.01-.01-.015a.957.957 0 0 0-.104-.094L3.253 2.361a.614.614 0 0 0-.9.054.69.69 0 0 0 .052.945L8.04 8.65l-5.612 5.516a.695.695 0 0 0-.028.945.636.636 0 0 0 .466.212.62.62 0 0 0 .434-.178L8.996 9.55 10.541 11a.615.615 0 0 0 .848-.005L12.977 9.5l5.663 5.65a.616.616 0 0 0 .9-.024.695.695 0 0 0-.023-.945l-5.593-5.576z"/>
</svg>
