<svg xmlns="http://www.w3.org/2000/svg" width="20" height="23" viewBox="0 0 20 23">
    <path fill="#FFF" fill-opacity=".323" fill-rule="nonzero" d="M7.862 2.365v-.246a.742.742 0 0 1 .007-.152v-.06c0-.022.007-.06.012-.082.01-.04 0-.072.013-.11.014-.054.021-.113.037-.168.024-.08.051-.161.081-.233l.02-.057c.04-.09.086-.18.136-.265.2-.32.478-.582.81-.761.166-.082.34-.146.52-.19.08-.022.167-.018.25-.037h.06c.074-.005.149-.005.223 0 .083-.001.165.009.244.029.041.01.076.007.115.019.126.031.248.073.365.126.087.044.171.076.25.126.356.227.638.552.814.935.007.014.006.027.013.04.061.148.107.302.137.459.01.04 0 .077.012.12a.514.514 0 0 1 .013.113v.083a.568.568 0 0 1 0 .094v.183a.732.732 0 0 1 .153.042c.03.009.055.008.084.018.1.034.2.062.3.095.1.033.175.057.26.088.034.014.065.017.1.032.077.035.165.065.242.1.03.014.058.017.087.032.091.045.19.079.281.126.092.047.192.1.284.152a6.3 6.3 0 0 1 2.35 2.263c.135.219.24.459.356.7.006.014 0 .027.012.04.034.07.062.152.094.225.022.05.027.1.05.155.021.055.035.113.056.173.065.193.1.406.156.616.033.129.032.273.062.4v.038c.01.043.01.1.02.145v.05c.006.032.004.083.011.114v.083a.678.678 0 0 1 .006.138v.054a.6.6 0 0 1 0 .114v3.956c-.005.074-.003.148.006.22.01.046 0 .1.006.139v.079c.008.036 0 .089.013.123v.056c.011.05.007.117.018.168v.04c.008.036 0 .078.013.118.025.11.024.238.05.347l.006.066c.034.139.046.289.081.423.008.029 0 .05.013.079.03.1.043.214.074.319.075.246.131.5.22.729.063.17.121.352.2.51.02.045.027.088.05.13.086.18.161.366.254.54.179.345.377.679.593 1 .09.13.184.258.275.387.076.107.165.206.243.312.078.106.168.189.244.29.038.052.093.092.131.143.022.03.05.055.072.085l.04.038c.05.061.102.12.16.173.083.07.155.152.215.243a.459.459 0 0 1-.007.4.427.427 0 0 1-.23.2c-.095.035-.217.03-.319.057-.057.015-.12.015-.18.03-.18.048-.377.056-.556.1-.079.022-.162.019-.24.039-.08.02-.182.029-.266.05-.034.01-.062 0-.1.013-.06.017-.133.023-.194.038-.022.006-.037 0-.059.007-.06.015-.133.022-.194.037-.022.006-.036 0-.059.007-.213.055-.448.065-.66.12-.036.009-.064 0-.1.013-.085.02-.183.028-.266.05-.035.009-.063 0-.1.013-.167.043-.35.05-.518.094-.06.016-.124.017-.18.032-.074.019-.15.02-.22.038s-.153.02-.224.038l-.063.006c-.153.039-.326.042-.48.082-.05.013-.1.006-.15.019-.1.025-.209.027-.306.05-.024 0-.048 0-.07.007-.06.014-.132.017-.192.03-.027.008-.047 0-.075.008-.084.018-.17.03-.256.037a5 5 0 0 1-.274.474 4.186 4.186 0 0 1-2.09 1.648c-.09.034-.182.05-.275.082-.139.048-.3.062-.45.1-.047.012-.1.009-.14.019h-.019a.504.504 0 0 0-.084.013h-.056a.618.618 0 0 1-.147.009h-.046c-.084.007-.169.005-.253-.006H9.79a.33.33 0 0 1-.066-.006h-.056c-.114-.027-.242-.021-.349-.051l-.06-.006c-.067-.02-.143-.031-.209-.051l-.04-.006c-.133-.045-.269-.077-.4-.126a4.218 4.218 0 0 1-.737-.366 4.363 4.363 0 0 1-1.488-1.592l-.053-.1a.109.109 0 0 0-.019-.04h-.022a.652.652 0 0 0-.14-.017c-.06-.015-.135-.017-.2-.032l-.072-.006c-.058-.015-.128-.018-.187-.032h-.028c-.176-.043-.37-.046-.546-.088-.067-.017-.134-.017-.2-.032h-.025c-.047-.012-.1-.012-.152-.025-.159-.041-.335-.048-.493-.088-.047-.013-.088-.007-.135-.02-.176-.048-.374-.054-.552-.1-.046-.013-.088-.006-.134-.02-.118-.032-.253-.038-.37-.07-.036-.008-.064 0-.1-.011-.038-.012-.109-.02-.157-.032l-.063-.007c-.035-.01-.082-.015-.118-.025l-.063-.006c-.14-.04-.3-.045-.443-.082-.022-.006-.037 0-.059-.007-.06-.015-.133-.021-.193-.037-.023-.006-.038 0-.06-.006-.073-.02-.158-.026-.23-.045-.074-.02-.16-.017-.24-.038-.046-.011-.1-.012-.148-.025-.047-.013-.117-.015-.177-.032-.144-.037-.3-.045-.447-.081-.06-.016-.123-.017-.18-.032-.03-.008-.055 0-.082-.013a.45.45 0 0 1-.243-.19.46.46 0 0 1-.013-.407c.057-.087.127-.166.206-.233.068-.063.13-.13.188-.2l.037-.035c.041-.054.09-.1.131-.154l.044-.045c.056-.075.125-.142.181-.218.056-.076.116-.141.168-.214.153-.215.314-.427.456-.654.152-.243.293-.5.43-.754.092-.173.164-.357.25-.534.031-.063.046-.128.075-.193.08-.174.138-.367.206-.552.011-.032.013-.06.025-.092.088-.242.138-.51.212-.77.025-.09.034-.181.056-.268.008-.032 0-.056.013-.09.028-.11.035-.235.062-.35l.006-.072c.028-.117.023-.254.05-.375v-.045c.006-.023.008-.064.013-.088v-.047c.012-.057.006-.132.018-.19v-.07c.01-.056.014-.113.013-.17v-.091c.01-.075.012-.15.006-.225V8.296a1.5 1.5 0 0 1 .013-.281v-.068c.011-.048.008-.111.02-.158V7.75c.023-.1.024-.221.05-.322 0-.022 0-.035.005-.057.025-.1.034-.2.062-.3.05-.164.088-.333.144-.486.021-.06.031-.117.056-.174.034-.08.063-.165.1-.24.007-.014 0-.027.012-.041.112-.228.208-.46.337-.67.111-.18.223-.357.343-.527.087-.122.186-.234.275-.353.037-.05.088-.09.125-.14.07-.092.158-.166.234-.252.05-.059.103-.113.162-.161l.081-.082c.081-.061.148-.141.228-.2.08-.06.154-.131.234-.19.168-.122.337-.247.515-.36.127-.08.257-.147.39-.22.232-.128.487-.23.74-.341.094-.042.19-.064.287-.1.08-.031.17-.06.252-.09.041-.013.078-.016.12-.03.061-.023.125-.04.19-.05zm.831-.183a.5.5 0 0 0 .118-.02c.045-.01.093-.008.134-.018.041-.01.054 0 .085-.006.06-.014.135-.011.2-.025h.047c.091-.021.2-.005.3-.026.05-.011.1 0 .147-.006h.365c.076-.005.153-.003.228.006.044.01.1 0 .134.007h.072c.032.007.083 0 .115.012h.053c.025.006.066.007.091.013h.041c.052.012.113.006.168.019a.943.943 0 0 0 .178.025.4.4 0 0 0 0-.1c-.006-.05-.01-.1-.012-.15a2.268 2.268 0 0 0-.056-.232 1.279 1.279 0 0 0-.587-.694 1.568 1.568 0 0 0-.32-.12c-.034-.01-.06-.005-.095-.013A.708.708 0 0 0 9.934.84a1.115 1.115 0 0 0-.475.095c-.045.02-.086.034-.128.057a1.33 1.33 0 0 0-.546.612 1.515 1.515 0 0 0-.08.284 1.429 1.429 0 0 0-.012.293zm1.182.742a1.141 1.141 0 0 1-.168 0c-.038.009-.088 0-.13.006-.065.015-.145.006-.207.02-.042.009-.075 0-.116.006-.089.02-.194.017-.28.037L8.901 3c-.062.015-.13.014-.194.03-.064.018-.11.018-.165.033-.132.036-.274.056-.4.095-.03.009-.056.008-.087.019-.1.035-.213.057-.318.094-.192.068-.39.132-.568.215-.077.036-.153.057-.228.095a6.625 6.625 0 0 0-.87.505c-.127.09-.245.19-.369.284-.043.033-.079.078-.12.11-.09.073-.175.152-.254.237-.051.046-.1.096-.144.149-.03.04-.082.076-.112.117-.09.12-.2.227-.287.35a5.25 5.25 0 0 0-.855 1.677l-.019.078c-.042.13-.064.275-.1.414-.012.049-.013.1-.025.145-.019.079-.014.166-.03.243-.01.046 0 .1-.013.139v.068c-.008.037 0 .089-.007.133a2.052 2.052 0 0 0-.006.335v3.74c.004.06.002.12-.006.18-.01.052 0 .122-.006.17v.083c0 .05-.005.102-.013.152v.066c-.017.08-.007.177-.025.256l-.006.107c-.025.108-.019.232-.044.338-.015.068-.008.135-.025.2-.04.167-.05.347-.093.508-.013.048-.012.09-.025.139-.013.048-.025.129-.044.192-.067.224-.11.458-.187.67-.027.074-.038.156-.069.227-.03.07-.052.153-.08.23-.04.1-.083.213-.126.313-.019.045-.028.089-.05.133-.066.136-.119.28-.187.417-.153.307-.31.61-.487.9-.209.34-.443.654-.674.969-.072.1-.158.186-.23.285a.569.569 0 0 0-.094.113.557.557 0 0 1 .144.026h.025c.048.012.107.019.156.03.034.01.062 0 .1.014.108.028.23.035.337.063.08.02.161.017.241.038.056.015.12.016.18.03.06.016.121.017.181.033.178.046.375.056.553.1.034.009.062 0 .1.013.084.022.181.028.265.05.034.009.062 0 .1.013.06.015.132.023.193.038.022 0 .037 0 .06.006.19.049.4.058.59.107.05.013.1.014.146.026.022 0 .037 0 .06.006.087.022.188.028.277.05.036.01.066 0 .1.013.116.03.25.034.368.063.05.012.1.007.146.019.183.045.387.045.571.089h.032c.046.01.106.013.153.025h.031c.145.035.312.028.46.063.05.012.106.008.155.019h.037c.056.013.127.012.184.025h.038c.08.018.175.013.255.03h.044c.091.022.2.013.29.033h.05c.1.024.23.008.334.032.03.006.063 0 .087.006h.063c.034.008.087 0 .122.013h.071c.038.008.1 0 .134.012h.085c.046.01.115 0 .162.013h.083c.02 0 .04.002.06.006.048.01.1 0 .146.006h.113c.072 0 .141.007.218.007h.134c.05.01.116-.008.17 0 .087.004.174.004.261 0 .054-.012.121.008.171 0h.185c.043.002.086 0 .128-.007h.053c.05.003.098 0 .146-.006.05-.01.107 0 .15-.006h.106c.037-.008.086 0 .128-.006.107-.024.246 0 .353-.025.051-.012.1 0 .156-.007.023 0 .055 0 .084-.006.105-.024.23-.008.334-.032.043-.01.08 0 .122-.006.088-.02.193-.012.28-.032.036-.008.064 0 .1-.006.08-.018.172-.014.25-.031h.037c.037-.01.088-.011.125-.02h.038c.046-.011.1-.006.152-.018.161-.038.341-.032.5-.07.028-.006.047 0 .075-.006.09-.022.192-.023.28-.044l.072-.007c.084-.02.182-.024.265-.044.026-.006.044 0 .07-.006.053-.014.12-.018.174-.032l.065-.006c.05-.013.1-.012.156-.025.174-.045.367-.051.54-.095.035-.01.062 0 .1-.013.1-.024.206-.031.3-.057.034-.008.062 0 .1-.012.108-.028.23-.036.337-.063.035-.01.063 0 .1-.013.084-.022.181-.03.265-.05.035-.01.062 0 .1-.013.061-.016.133-.022.194-.038l.06-.006c.056-.015.12-.016.18-.032.061-.016.12-.016.181-.031.166-.044.351-.053.518-.095.034-.01.062 0 .1-.013.167-.044.352-.052.518-.094.072-.02.148-.02.216-.038.02 0 .04-.004.06-.01v-.006a.412.412 0 0 1-.082-.095.663.663 0 0 1-.037-.038c-.042-.057-.089-.107-.13-.164-.068-.09-.148-.171-.214-.262-.1-.134-.2-.265-.293-.4-.029-.042-.052-.084-.08-.126-.245-.36-.468-.735-.669-1.121-.106-.2-.187-.41-.287-.613-.026-.052-.036-.107-.062-.16-.085-.172-.144-.37-.213-.553-.016-.043-.02-.083-.037-.126-.085-.23-.14-.482-.212-.726-.032-.11-.044-.224-.075-.332-.01-.038-.008-.072-.019-.11-.044-.166-.05-.355-.093-.527-.007-.028 0-.048-.007-.076-.012-.05-.013-.113-.025-.164-.007-.033 0-.057-.006-.09-.02-.086-.01-.192-.03-.28v-.056c-.016-.066 0-.15-.02-.215-.009-.042 0-.091-.006-.127v-.05a.638.638 0 0 0-.006-.126v-4a1.222 1.222 0 0 0-.006-.236v-.113c-.014-.06 0-.14-.019-.2-.009-.037 0-.066-.007-.1-.018-.077-.018-.168-.037-.243-.006-.023 0-.037-.006-.06-.02-.081-.026-.168-.05-.25-.024-.08-.039-.18-.069-.268a6.071 6.071 0 0 0-.28-.751 5.928 5.928 0 0 0-.338-.612c-.122-.195-.255-.354-.383-.527-.043-.058-.1-.107-.14-.165l-.032-.028c-.028-.037-.068-.067-.094-.1a.9.9 0 0 0-.156-.158l-.04-.044a.92.92 0 0 0-.094-.082l-.05-.051c-.086-.065-.163-.144-.249-.208a5.978 5.978 0 0 0-.67-.448 6.783 6.783 0 0 0-.869-.385 7.3 7.3 0 0 0-2.682-.453zm-.087 1.26h.3a.905.905 0 0 1 .175.006c.041.009.09 0 .125.006h.07c.027.007.073.007.1.013.025.006.07 0 .11.006.07.017.154.015.223.032.04.009.071 0 .11.013.093.023.2.029.287.056.037.012.07.009.106.019.1.029.212.049.31.082.042.015.081.017.123.032.153.054.313.1.456.164a.745.745 0 0 1 .51.353.428.428 0 0 1-.05.405.426.426 0 0 1-.429.158 1.1 1.1 0 0 1-.178-.076c-.064-.033-.135-.054-.2-.082-.017-.008-.03 0-.047-.013-.107-.047-.23-.081-.343-.12-.037-.012-.069-.012-.106-.025-.09-.031-.2-.047-.29-.076-.05-.016-.1-.011-.15-.025-.108-.03-.233-.031-.347-.057-.034-.008-.06 0-.1-.006-.082-.02-.185-.006-.27-.026h-.107a1 1 0 0 0-.184-.006.908.908 0 0 0-.175.006h-.104a.231.231 0 0 1-.047.007h-.053c-.052.012-.12.007-.172.019h-.04c-.047.01-.1.006-.153.019-.079.019-.17.024-.247.044-.04.01-.075.008-.115.019-.1.027-.206.044-.3.075-.044.016-.084.017-.127.032-.108.038-.224.069-.325.114-.022.009-.04.01-.062.019a3.157 3.157 0 0 0-.272.12c-.039.019-.077.029-.115.05a3.616 3.616 0 0 0-1.713 1.863c-.05.146-.091.294-.125.445-.022.084-.018.174-.038.259v.047c-.01.046 0 .113-.012.16v.1a.546.546 0 0 1-.056.162.446.446 0 0 1-.23.183.424.424 0 0 1-.444-.13.543.543 0 0 1-.094-.208.557.557 0 0 1 0-.13.774.774 0 0 1 .006-.138v-.057c.01-.04 0-.088.013-.13.027-.115.03-.243.062-.35.01-.027 0-.05.013-.075.028-.1.047-.195.081-.288.057-.163.123-.322.2-.476.065-.128.126-.25.2-.367.088-.14.19-.27.287-.4.032-.042.075-.078.106-.12.031-.042.06-.067.088-.1l.05-.047a.719.719 0 0 1 .134-.136l.041-.044a.707.707 0 0 1 .087-.076c.026-.02.046-.05.072-.07.068-.052.131-.112.2-.164.21-.158.43-.302.66-.43.291-.146.595-.269.907-.365.174-.061.362-.09.546-.14.078-.02.161-.024.237-.043l.065-.006c.078-.02.17-.02.25-.038h.038c.1-.024.228-.01.333-.032a.883.883 0 0 0 .14-.016zM7.36 20.77v.009c.038.038.072.08.1.126a2.5 2.5 0 0 0 .218.24c.034.035.067.07.1.1.033.032.077.076.12.108.086.066.168.139.258.2.22.15.455.276.7.379.022.01.04.01.062.019.121.046.255.082.387.12.064.018.132.022.194.038s.114.006.171.019c.11.017.223.023.334.018a.948.948 0 0 0 .187-.006h.063c.06-.014.133-.011.19-.025.057-.014.092-.006.141-.02.114-.03.234-.051.34-.087.032-.012.063-.012.093-.025.07-.03.147-.05.216-.083.132-.066.264-.125.39-.195.136-.082.266-.172.39-.27.041-.03.077-.072.118-.1.052-.041.101-.087.147-.135a.578.578 0 0 0 .065-.066l.063-.06c.031-.042.068-.077.1-.12.014-.02.036-.035.05-.054l.056-.08a.211.211 0 0 0 .04-.052h-.03a.361.361 0 0 1-.084.009c-.06.014-.132.009-.19.023h-.047c-.12.027-.268.01-.39.037h-.056c-.03.007-.079.006-.109.013h-.063c-.034.007-.087 0-.122.013h-.068c-.038.008-.1 0-.134.012h-.082a1.1 1.1 0 0 1-.174.013h-.08c-.045.009-.1 0-.157.006a.7.7 0 0 1-.14.006h-.053a.438.438 0 0 1-.09.007h-.294a1.552 1.552 0 0 1-.265 0h-.202a.611.611 0 0 1-.106 0c-.035-.008-.08 0-.112 0h-.069a.963.963 0 0 1-.2-.007h-.143c-.049-.01-.108 0-.163-.006-.094-.014-.21 0-.3-.02h-.08c-.03-.005-.072 0-.108-.005-.095-.022-.21 0-.3-.025h-.06c-.08-.018-.179-.008-.259-.026H7.87c-.048-.011-.113-.008-.162-.018h-.044c-.023-.006-.064-.008-.087-.013h-.054a1.171 1.171 0 0 0-.163-.017z"/>
</svg>
