<svg xmlns="http://www.w3.org/2000/svg" width="23" height="23" viewBox="0 0 23 23">
    <path fill="#FFF" fill-rule="nonzero" d="M20.349 12.506c.51 0 .924.413.924.924v5.614a3.03 3.03 0 0 1-3.027 3.027H3.526A3.03 3.03 0 0 1 .5 19.044V4.325a3.03 3.03 0 0 1 3.027-3.027H9.14a.924.924 0 0 1 0 1.848H3.527a1.18 1.18 0 0 0-1.179 1.179v14.72c0 .649.529 1.178 1.179 1.178h14.719a1.18 1.18 0 0 0 1.178-1.179V13.43c0-.51.414-.924.925-.924zm1.967-8.297a.869.869 0 0 1 0 1.23l-9.886 9.886a.869.869 0 0 1-.615.254H7.86a.869.869 0 0 1-.869-.869v-3.954a.87.87 0 0 1 .255-.615L17.133.255c.34-.34.89-.34 1.229 0l3.954 3.954zm-10.86 9.632l9.017-9.017-2.726-2.726-9.018 9.018v2.725h2.726z"/>
</svg>
