<svg xmlns="http://www.w3.org/2000/svg" width="15" height="10" viewBox="0 0 15 10">
    <path fill="#FFF" fill-rule="evenodd" d="M5.51 6.068a.297.297 0 0 1-.298-.298V4.68c0-.164.133-.297.297-.297h4.009s-.003.99-.006 1.019a4.439 4.439 0 0 1-8.87-.282C.657 2.673 2.721.666 5.168.714a4.423 4.423 0 0 1 2.963 1.215.298.298 0 0 1 0 .433l-.797.75a.299.299 0 0 1-.406 0 2.743 2.743 0 0 0-1.849-.714A2.757 2.757 0 0 0 2.328 5.26 2.762 2.762 0 0 0 5.06 7.906a2.758 2.758 0 0 0 2.617-1.838H5.51zm7.681-1.586h1.065a.26.26 0 0 1 .26.26v.897a.26.26 0 0 1-.26.26h-1.065v1.066a.26.26 0 0 1-.26.26h-.897a.26.26 0 0 1-.26-.26V5.9h-1.066a.26.26 0 0 1-.26-.261v-.896a.26.26 0 0 1 .26-.261h1.065V3.417a.26.26 0 0 1 .261-.26h.896a.26.26 0 0 1 .261.26v1.065z"/>
</svg>
