<svg xmlns="http://www.w3.org/2000/svg" width="68" height="73" viewBox="0 0 68 73">
    <defs>
        <filter id="a" width="106.9%" height="288.6%" x="-3.4%" y="-88.6%" filterUnits="objectBoundingBox">
            <feOffset dy="2" in="SourceAlpha" result="shadowOffsetOuter1"/>
            <feGaussianBlur in="shadowOffsetOuter1" result="shadowBlurOuter1" stdDeviation="13"/>
            <feColorMatrix in="shadowBlurOuter1" result="shadowMatrixOuter1" values="0 0 0 0 0 0 0 0 0 0 0 0 0 0 0 0 0 0 0.0188519022 0"/>
            <feMerge>
                <feMergeNode in="shadowMatrixOuter1"/>
                <feMergeNode in="SourceGraphic"/>
            </feMerge>
        </filter>
    </defs>
    <path fill="#356376" fill-rule="evenodd" d="M1508.033 43.472h-12.821a15.445 15.445 0 0 0 1.911-7.461v-2.768c0-3.058 2.196-5.617 5.084-6.157l.027-.005.11-.02c.02-.002.039-.006.058-.009a6.405 6.405 0 0 1 .344-.042l.073-.007.102-.008.065-.004.116-.006.052-.002c.057-.001.113-.003.17-.003h.066c.19.002.38.012.568.03h.01l.13.015.074.01.073.01c.176.025.35.058.522.098l.114.026a6.191 6.191 0 0 1 2.857 1.616 6.127 6.127 0 0 1 1.83 4.382v2.844c0 2.628.656 5.178 1.911 7.461h-3.446zm-4.688 3.795c-1.32 0-2.44-.869-2.812-2.061h5.625a2.948 2.948 0 0 1-2.813 2.06zm-.721-21.988a.75.75 0 0 1 1.443 0 8.145 8.145 0 0 0-.184-.014h-.013a7.964 7.964 0 0 0-.173-.01h-.02a8.36 8.36 0 0 0-.166-.006h-.05l-.115-.002h-.029c-.063 0-.127.001-.19.003l-.064.002a8.334 8.334 0 0 0-.125.006c-.026 0-.051.002-.077.004a8.339 8.339 0 0 0-.192.014l-.045.003zm11.13 18.57a13.745 13.745 0 0 1-2.443-7.838v-2.844c0-2.121-.832-4.113-2.343-5.61a7.938 7.938 0 0 0-3.13-1.917v-.162a2.487 2.487 0 0 0-2.493-2.478 2.487 2.487 0 0 0-2.491 2.478v.17a8.014 8.014 0 0 0-5.474 7.595v2.768c0 2.81-.845 5.52-2.444 7.838l-.936 1.357h6.74a4.688 4.688 0 0 0 4.605 3.794 4.688 4.688 0 0 0 4.606-3.794h6.74l-.936-1.357z" filter="url(#a)" transform="translate(-1469 -2)"/>
</svg>
