<svg xmlns="http://www.w3.org/2000/svg" width="30" height="34" viewBox="0 0 30 34">
    <path fill="#FFF" fill-rule="evenodd" d="M26.361.837h-7.954A1.313 1.313 0 0 0 17.17 0h-4.338c-.572 0-1.056.35-1.238.837H3.639C1.632.837 0 2.403 0 4.33v3.175c0 .698.59 1.263 1.316 1.263H3.79v23.5c0 .697.589 1.262 1.315 1.262h19.788c.726 0 1.315-.565 1.315-1.262v-23.5h2.475c.727 0 1.316-.565 1.316-1.262V4.329C30 2.403 28.368.837 26.361.837zM6.422 31.005h17.156V8.767H6.422v22.238zM27.368 6.242H2.632V4.33c0-.533.451-.967 1.007-.967h22.722c.555 0 1.007.434 1.007.967v1.913zM11.471 26.471c-.488 0-.883-.567-.883-1.267v-13.35c0-.699.395-1.266.883-1.266.487 0 .882.567.882 1.267v13.349c0 .7-.395 1.267-.882 1.267zm7.058 0c-.487 0-.882-.567-.882-1.267v-13.35c0-.699.395-1.266.882-1.266.488 0 .883.567.883 1.267v13.349c0 .7-.395 1.267-.883 1.267z"/>
</svg>
