<svg xmlns="http://www.w3.org/2000/svg" width="55" height="54" viewBox="0 0 55 54">
    <defs>
        <filter id="a" width="106.9%" height="288.6%" x="-3.4%" y="-88.6%" filterUnits="objectBoundingBox">
            <feOffset dy="2" in="SourceAlpha" result="shadowOffsetOuter1"/>
            <feGaussianBlur in="shadowOffsetOuter1" result="shadowBlurOuter1" stdDeviation="13"/>
            <feColorMatrix in="shadowBlurOuter1" result="shadowMatrixOuter1" values="0 0 0 0 0 0 0 0 0 0 0 0 0 0 0 0 0 0 0.0188519022 0"/>
            <feMerge>
                <feMergeNode in="shadowMatrixOuter1"/>
                <feMergeNode in="SourceGraphic"/>
            </feMerge>
        </filter>
    </defs>
    <path fill="#FFF" fill-rule="nonzero" d="M18.432 21.004a.59.59 0 0 1 .619.37.634.634 0 0 1 .027.407.87.87 0 0 1-.128.232.561.561 0 0 0-.115.11c.052.07.097.145.133.223.106.172.205.349.312.523.237.384.458.78.696 1.166.1.16.193.327.293.49.036.06.082.12.115.185a6.42 6.42 0 0 1 .32-.19c.166-.092.325-.195.486-.288.032-.018.061-.027.092-.046.067-.042.137-.091.206-.13.087-.048.17-.097.252-.148a.11.11 0 0 0 .087-.074.214.214 0 0 1-.019-.092.536.536 0 0 1 .06-.343.598.598 0 0 1 .876-.226c.23.17.317.474.21.74a.6.6 0 0 1-.575.366c-.023.097-.05.193-.083.288-.015.044-.013.08-.028.125-.033.098-.058.211-.091.31-.015.044-.014.08-.028.124-.02.068-.042.144-.064.213a8.786 8.786 0 0 0-.009.056c-.108.317-.178.66-.275.98-.058.192-.094.386-.156.57a1.28 1.28 0 0 1-.068.25.34.34 0 0 1-.124.004h-6.026a.057.057 0 0 0-.005-.004c-.265-.972-.53-1.944-.797-2.915h-.068a1.238 1.238 0 0 0-.142-.028.929.929 0 0 1-.234-.144.612.612 0 0 1 .234-1.014.53.53 0 0 1 .266-.018c.037.003.073.01.11.018.178.068.319.21.384.389a.59.59 0 0 1 .028.24.818.818 0 0 0-.028.14.396.396 0 0 1 .092.055c.063.04.127.072.187.111.093.058.188.1.28.157.128.08.263.167.394.24.113.065.223.128.33.195a.752.752 0 0 1 .151.088.016.016 0 0 0 .01-.004.813.813 0 0 0 .105-.176c.077-.126.15-.256.229-.384.277-.45.537-.913.815-1.365.097-.157.187-.318.284-.477a.77.77 0 0 0 .115-.199.275.275 0 0 1-.115-.102.837.837 0 0 1-.072-.092.65.65 0 0 1-.064-.44.804.804 0 0 1 .147-.277.633.633 0 0 1 .247-.162.635.635 0 0 0 .122-.027zm-2.858 6.885h5.58c.112-.01.226-.007.339.01.13.03.244.112.315.226a.5.5 0 0 1 .083.333.533.533 0 0 1-.353.43c-.139.026-.28.032-.421.019h-5.172c-.16.015-.322.008-.481-.019a.524.524 0 0 1-.335-.638.64.64 0 0 1 .083-.162.526.526 0 0 1 .233-.171.873.873 0 0 0 .129-.028z" filter="url(#a)" transform="translate(9 -1)"/>
</svg>
