<svg xmlns="http://www.w3.org/2000/svg" width="28" height="33" viewBox="0 0 28 33">
    <path fill="#FFF" fill-rule="evenodd" d="M15.539 32.91c6.456-.725 11.63-5.895 12.366-12.363.967-8.457-5.595-15.656-13.819-15.748V1.005c0-.21-.263-.322-.44-.19L5.849 6.55a.24.24 0 0 0 0 .389l7.797 5.736c.177.132.44.014.44-.19V8.697c5.779.092 10.407 5.02 10.013 10.907-.335 5.065-4.457 9.175-9.513 9.498-5.358.342-9.914-3.491-10.73-8.562a1.943 1.943 0 0 0-1.92-1.627C.76 18.914-.16 19.96.024 21.127 1.168 28.352 7.827 33.773 15.54 32.91z"/>
</svg>
