<svg xmlns="http://www.w3.org/2000/svg" xmlns:xlink="http://www.w3.org/1999/xlink" width="22" height="19" viewBox="0 0 22 19">
    <defs>
        <path id="a" d="M.003 18.318h21.955V.014H.003z"/>
    </defs>
    <g fill="none" fill-rule="evenodd" opacity=".23">
        <g transform="translate(0 .68)">
            <mask id="b" fill="#fff">
                <use xlink:href="#a"/>
            </mask>
            <path fill="#FFF" d="M3.659 16.49a9.11 9.11 0 0 1-1.829-5.492c0-5.055 4.096-9.153 9.149-9.153 5.053 0 9.149 4.098 9.149 9.153a9.11 9.11 0 0 1-1.83 5.492H3.658zm15.788 1.498a10.944 10.944 0 0 0 2.51-6.99C21.958 4.932 17.043.014 10.98.014 4.915.014 0 4.932 0 10.998c0 2.587.897 5.037 2.51 6.99.174.21.432.333.705.333h15.527a.915.915 0 0 0 .705-.333z" mask="url(#b)"/>
            <path fill="#FFF" d="M10.064.93v3.66a.915.915 0 1 0 1.83 0V.93a.915.915 0 1 0-1.83 0M.915 11.914h3.66a.915.915 0 0 0 0-1.831H.914a.915.915 0 0 0 0 1.83" mask="url(#b)"/>
        </g>
        <path fill="#FFF" d="M17.357 12.693h3.654c.505 0 .914-.42.914-.939a.926.926 0 0 0-.914-.938h-3.654a.926.926 0 0 0-.913.938c0 .519.409.939.913.939M3.192 5.147l1.275 1.275a.902.902 0 1 0 1.276-1.275L4.468 3.872a.902.902 0 0 0-1.276 1.275M17.457 3.872l-1.275 1.275a.902.902 0 1 0 1.275 1.275l1.275-1.275a.902.902 0 0 0-1.275-1.275M11.15 13.519l-2.59-2.59 5.18-2.591-2.59 5.18"/>
    </g>
</svg>
