<svg xmlns="http://www.w3.org/2000/svg" width="17" height="18" viewBox="0 0 17 18">
    <path fill="#FFF" fill-rule="evenodd" d="M8.367 2.306c1.256 0 2.197.939 2.197 2.195 0 1.257-.94 2.197-2.197 2.197-1.252 0-2.196-.94-2.196-2.197 0-1.256.944-2.195 2.196-2.195zm0 9.414c3.142 0 6.385 1.573 6.385 2.195v1.155H1.988v-1.155c0-.622 3.243-2.195 6.379-2.195zm0-11.402A4.199 4.199 0 0 0 4.183 4.5a4.196 4.196 0 0 0 4.184 4.184c2.304 0 4.19-1.88 4.19-4.184 0-2.299-1.886-4.183-4.19-4.183zm0 9.414C5.542 9.732 0 11.091 0 13.915v3.143h16.74v-3.143c0-2.824-5.547-4.183-8.373-4.183z" opacity=".2"/>
</svg>
