<svg xmlns="http://www.w3.org/2000/svg" width="22" height="19" viewBox="0 0 22 19">
    <g fill="#FFF" fill-rule="evenodd" opacity=".12">
        <path d="M2.91 2.03c-.624 0-1.133.509-1.133 1.135v12.15c0 .625.509 1.135 1.134 1.135h16.178c.625 0 1.134-.51 1.134-1.135V3.165c0-.626-.509-1.135-1.134-1.135H2.911zm16.18 16.2H2.91A2.916 2.916 0 0 1 0 15.314V3.165A2.916 2.916 0 0 1 2.91.25h16.18A2.916 2.916 0 0 1 22 3.165v12.15a2.916 2.916 0 0 1-2.91 2.914z"/>
        <path d="M11 11.174a.886.886 0 0 1-.51-.16L.38 3.918a.892.892 0 0 1-.22-1.24.887.887 0 0 1 1.238-.22L11 9.196l9.602-6.737a.887.887 0 0 1 1.237.22.892.892 0 0 1-.218 1.24L11.51 11.013a.886.886 0 0 1-.51.161"/>
    </g>
</svg>
