<svg xmlns="http://www.w3.org/2000/svg" width="14" height="8" viewBox="0 0 14 8">
    <path fill="#FFF" fill-rule="nonzero" d="M11.74 4.642c.416.409.855.793 1.228 1.243.165.2.321.407.44.639.17.33.017.693-.277.712h-1.829c-.471.039-.847-.152-1.164-.476-.253-.26-.487-.535-.73-.804-.1-.11-.205-.212-.33-.294-.25-.163-.466-.113-.609.15-.145.265-.178.56-.192.857-.02.433-.15.547-.582.567-.925.043-1.802-.097-2.617-.566-.718-.413-1.275-.997-1.76-1.658-.944-1.286-1.667-2.7-2.317-4.153-.146-.327-.04-.503.32-.51a49.35 49.35 0 0 1 1.79 0c.243.004.403.143.497.374a11.18 11.18 0 0 0 1.213 2.26c.132.188.266.375.458.507.212.146.374.098.473-.14.064-.15.091-.313.106-.474a7.102 7.102 0 0 0-.03-1.662C5.778.87 5.584.646 5.242.58c-.175-.033-.15-.099-.065-.199.147-.173.286-.28.561-.28h2.067c.325.064.397.211.442.54l.001 2.308c-.003.128.064.506.292.59.183.06.303-.086.413-.203.494-.528.847-1.152 1.163-1.798.14-.284.26-.58.377-.874.086-.22.222-.327.467-.322l1.989.002c.059 0 .118 0 .176.01.335.058.427.203.323.532-.163.516-.48.947-.79 1.379-.332.461-.687.907-1.016 1.371-.302.424-.278.638.097 1.006z"/>
</svg>
