<svg xmlns="http://www.w3.org/2000/svg" xmlns:xlink="http://www.w3.org/1999/xlink" width="136" height="161" viewBox="0 0 136 161">
    <defs>
        <path id="b" d="M59.153 0H3.748C2.205 0 .955 1.25.955 3.677V105c0 .659 1.25 1.91 2.793 1.91h76.504c1.543 0 2.793-1.251 2.793-1.91V24.776c0-1.329-.177-1.756-.49-2.071L60.34.49A1.687 1.687 0 0 0 59.153 0z"/>
        <filter id="a" width="207.2%" height="182.3%" x="-53.6%" y="-34.6%" filterUnits="objectBoundingBox">
            <feOffset dy="7" in="SourceAlpha" result="shadowOffsetOuter1"/>
            <feGaussianBlur in="shadowOffsetOuter1" result="shadowBlurOuter1" stdDeviation="13.5"/>
            <feColorMatrix in="shadowBlurOuter1" values="0 0 0 0 0.368627451 0 0 0 0 0.760784314 0 0 0 0 0.980392157 0 0 0 0.56 0"/>
        </filter>
    </defs>
    <g fill="none" fill-rule="evenodd">
        <g fill-rule="nonzero" transform="translate(26 20)">
            <use fill="#000" filter="url(#a)" xlink:href="#b"/>
            <use fill="#E9E9E0" fill-rule="evenodd" xlink:href="#b"/>
        </g>
        <path fill="#D9D7CA" fill-rule="nonzero" d="M86.136 20.288V42.91h22.621z"/>
        <path fill="#90BAE1" fill-rule="nonzero" d="M106.252 126.91H29.748a2.793 2.793 0 0 1-2.793-2.794V94.455h82.09v29.661a2.793 2.793 0 0 1-2.793 2.793z"/>
        <g fill="#C8BDB8" fill-rule="nonzero">
            <path d="M38.41 44.818h11.454a1.909 1.909 0 1 0 0-3.818H38.409a1.909 1.909 0 1 0 0 3.818zM38.41 54.364h17.18a1.909 1.909 0 1 0 0-3.819H38.41a1.909 1.909 0 1 0 0 3.819zM63.227 54.364c.497 0 .993-.21 1.356-.554.343-.363.553-.86.553-1.355 0-.497-.21-.993-.553-1.356-.726-.706-1.986-.706-2.711 0-.346.363-.554.84-.554 1.356 0 .515.208.992.554 1.355.36.344.859.554 1.355.554zM70.864 54.364h15.272a1.909 1.909 0 1 0 0-3.819H70.864a1.909 1.909 0 1 0 0 3.819zM37.054 79.735c-.346.363-.554.84-.554 1.356 0 .515.208.993.554 1.355.36.344.838.554 1.355.554.516 0 .993-.21 1.356-.554.343-.362.553-.859.553-1.355s-.21-.993-.553-1.356c-.707-.706-2.005-.706-2.711 0zM61.318 79.182H46.045a1.909 1.909 0 1 0 0 3.818h15.273a1.909 1.909 0 1 0 0-3.818zM93.773 54.364h3.818a1.909 1.909 0 1 0 0-3.819h-3.818a1.909 1.909 0 1 0 0 3.819zM38.41 63.91h42a1.909 1.909 0 1 0 0-3.82h-42a1.909 1.909 0 1 0 0 3.82zM97.59 60.09H86.137a1.909 1.909 0 1 0 0 3.82h11.455a1.909 1.909 0 1 0 0-3.82zM38.41 73.455h7.635a1.909 1.909 0 1 0 0-3.819H38.41a1.909 1.909 0 1 0 0 3.819zM72.773 69.636H53.682a1.909 1.909 0 1 0 0 3.819h19.09a1.909 1.909 0 1 0 0-3.819zM97.59 69.636H80.41a1.909 1.909 0 1 0 0 3.819h17.18a1.909 1.909 0 1 0 0-3.819z"/>
        </g>
        <text fill="#FFF" font-family="GothamPro, Gotham Pro" font-size="14" transform="translate(26 20)">
            <tspan x="26" y="96">ИНН</tspan>
        </text>
    </g>
</svg>
