<svg xmlns="http://www.w3.org/2000/svg" width="84" height="107" viewBox="0 0 84 107">
    <g fill="none" fill-rule="nonzero">
        <path fill="#EDEADA" d="M82.09 25.806L56.553 0H1.996A1.994 1.994 0 0 0 0 1.993v102.923c0 1.1.894 1.993 2.009 1.993h78.073c1.11 0 2.009-.897 2.009-2.005V25.806z"/>
        <path fill="#CEC9AE" d="M57.273 0v26.727H84z"/>
        <g fill="#CEC9AE">
            <path d="M17.945 30.3h16.037c.983 0 1.782-.8 1.782-1.787 0-.987-.799-1.786-1.782-1.786H17.945c-.983 0-1.781.799-1.781 1.786 0 .988.798 1.786 1.781 1.786zM48.236 66.018h-30.29c-.984 0-1.782.798-1.782 1.786 0 .987.798 1.785 1.781 1.785h30.291c.984 0 1.782-.798 1.782-1.785 0-.988-.798-1.786-1.782-1.786zM66.055 53.516H53.582c-.984 0-1.782.798-1.782 1.786s.798 1.786 1.782 1.786h12.473c.983 0 1.781-.798 1.781-1.786s-.798-1.786-1.781-1.786zM17.945 44.587h8.91c.983 0 1.781-.799 1.781-1.786 0-.988-.798-1.786-1.781-1.786h-8.91c-.983 0-1.781.798-1.781 1.786 0 .987.798 1.786 1.781 1.786zM44.673 44.587h12.472c.984 0 1.782-.799 1.782-1.786 0-.988-.798-1.786-1.782-1.786H44.673c-.984 0-1.782.798-1.782 1.786 0 .987.798 1.786 1.782 1.786zM33.982 42.8c0 .465.196.93.517 1.269.338.321.801.518 1.265.518.463 0 .926-.197 1.265-.518.32-.34.516-.804.516-1.268 0-.467-.196-.93-.516-1.268-.66-.661-1.853-.661-2.53 0-.321.337-.517.801-.517 1.268zM26.855 53.516c-.984 0-1.782.798-1.782 1.786s.798 1.786 1.782 1.786h17.818c.983 0 1.782-.798 1.782-1.786s-.799-1.786-1.782-1.786H26.855zM17.945 57.088c.464 0 .927-.196 1.266-.518.32-.34.516-.804.516-1.268 0-.466-.196-.93-.516-1.268-.66-.66-1.871-.66-2.53 0a1.84 1.84 0 0 0-.517 1.268c0 .464.196.929.516 1.268.339.322.802.518 1.265.518zM66.055 78.52H53.582c-.984 0-1.782.797-1.782 1.785 0 .988.798 1.786 1.782 1.786h12.473c.983 0 1.781-.798 1.781-1.786s-.798-1.786-1.781-1.786zM44.673 78.52H26.855c-.984 0-1.782.797-1.782 1.785 0 .988.798 1.786 1.782 1.786h17.818c.983 0 1.782-.798 1.782-1.786s-.799-1.786-1.782-1.786zM16.68 79.037a1.81 1.81 0 0 0-.516 1.268c0 .482.178.929.516 1.268.339.321.802.518 1.265.518.482 0 .927-.197 1.266-.518.32-.34.516-.804.516-1.268 0-.484-.196-.93-.516-1.25-.66-.679-1.854-.679-2.53-.018zM66.055 44.587c.463 0 .926-.197 1.265-.518a1.8 1.8 0 0 0 .516-1.268c0-.467-.178-.93-.516-1.268-.677-.661-1.853-.661-2.53 0-.321.337-.517.801-.517 1.268 0 .464.196.928.516 1.268.339.321.802.518 1.266.518zM58.41 69.072c.321-.34.517-.804.517-1.268 0-.467-.196-.93-.516-1.268-.678-.661-1.871-.661-2.53 0-.321.337-.517.801-.517 1.268 0 .464.196.928.516 1.268.339.337.784.517 1.265.517.482 0 .927-.196 1.266-.517zM64.79 66.536c-.321.337-.517.801-.517 1.268 0 .464.196.928.516 1.268.339.321.784.517 1.266.517.48 0 .926-.196 1.265-.517.32-.34.516-.804.516-1.268 0-.467-.196-.93-.516-1.268-.66-.661-1.871-.661-2.53 0z"/>
        </g>
    </g>
</svg>
