<svg xmlns="http://www.w3.org/2000/svg" width="24" height="24" viewBox="0 0 24 24">
    <path fill="#000" fill-rule="nonzero" d="M20.368 19.967h-3.994a.4.4 0 0 1-.399-.399v-3.993a.4.4 0 0 1 .4-.4h3.993a.4.4 0 0 1 .4.4v3.993a.4.4 0 0 1-.4.4zm-3.594-.798h3.195v-3.195h-3.195v3.195zm1.597.798a.4.4 0 0 1-.4-.399v-3.993a.4.4 0 0 1 .8 0v3.993a.4.4 0 0 1-.4.4zm2.396 0h-4.792a.4.4 0 1 1 0-.798h4.792a.4.4 0 1 1 0 .798zm-13.178 0H3.595a.4.4 0 0 1-.4-.399v-3.993a.4.4 0 0 1 .4-.4H7.59a.4.4 0 0 1 .4.4v3.993a.4.4 0 0 1-.4.4zm-3.594-.798h3.194v-3.195H3.995v3.195zm10.782 4.792h-5.59a.4.4 0 0 1-.4-.4v-7.986a.4.4 0 0 1 .4-.4h5.59a.4.4 0 0 1 .4.4v7.987a.4.4 0 0 1-.4.398zm-5.192-.799h4.793v-7.188H9.585v7.188zm-3.993-3.195a.4.4 0 0 1-.4-.399v-3.993a.4.4 0 0 1 .8 0v3.993a.4.4 0 0 1-.4.4zm1.997-2.396H3.595a.4.4 0 1 1 0-.798H7.59a.4.4 0 1 1 0 .798zm12.779 0h-3.994a.4.4 0 0 1 0-.798h3.994a.4.4 0 1 1 0 .798zm-12.38 2.396H3.196a.4.4 0 0 1 0-.798h4.792a.4.4 0 0 1 0 .798zm12.38-7.987h-3.994a.4.4 0 0 1-.399-.399V7.588a.4.4 0 0 1 .4-.4h3.993a.4.4 0 0 1 .4.4v3.993a.4.4 0 0 1-.4.4zm-3.594-.798h3.195V7.987h-3.195v3.195zm1.597.798a.4.4 0 0 1-.4-.399V7.588a.4.4 0 1 1 .8 0v3.993a.4.4 0 0 1-.4.4zm2.396 0h-4.792a.4.4 0 1 1 0-.798h4.792a.4.4 0 1 1 0 .799zm-13.178 0H3.595a.4.4 0 0 1-.4-.399V7.588a.4.4 0 0 1 .4-.4H7.59a.4.4 0 0 1 .4.4v3.993a.4.4 0 0 1-.4.4zm-3.594-.798h3.194V7.987H3.995v3.195zm1.597.798a.4.4 0 0 1-.4-.399V7.588a.4.4 0 1 1 .8 0v3.993a.4.4 0 0 1-.4.4zm1.997-2.396H3.595a.4.4 0 0 1 0-.798H7.59a.4.4 0 0 1 0 .8v-.002zm12.779 0h-3.994a.4.4 0 0 1 0-.798h3.994a.4.4 0 1 1 0 .8v-.002zM7.988 11.98H3.196a.4.4 0 0 1 0-.798h4.792a.4.4 0 1 1 0 .799zm5.99 0H9.985a.4.4 0 0 1-.4-.399V7.588a.4.4 0 0 1 .4-.4h3.993a.4.4 0 0 1 .4.4v3.993a.4.4 0 0 1-.4.4zm-3.594-.798h3.195V7.987h-3.195v3.195zm1.598.798a.4.4 0 0 1-.4-.399V7.588a.4.4 0 1 1 .799 0v3.993a.4.4 0 0 1-.4.4zm1.996-2.396H9.985a.4.4 0 0 1 0-.798h3.993a.4.4 0 0 1 0 .8v-.002zm.4 2.396H9.585a.4.4 0 1 1 0-.798h4.793a.4.4 0 1 1 0 .799zM9.186 22.363H1.2a.4.4 0 0 1 0-.798h7.987a.4.4 0 1 1 0 .798zm13.578-7.986H1.199a.4.4 0 0 1 0-.8h21.565a.4.4 0 0 1 0 .8zm0-7.987H1.199a.4.4 0 0 1 0-.8h21.565a.4.4 0 0 1 0 .8zm0 15.973h-7.987a.4.4 0 0 1 0-.798h7.987a.4.4 0 1 1 0 .798zm0 1.598H1.199a.4.4 0 0 1-.4-.4V4.394a.4.4 0 0 1 .4-.4h21.565a.4.4 0 0 1 .4.4v19.169a.4.4 0 0 1-.4.398zm-21.165-.799h20.766V4.792H1.599v18.37zM23.57 4.792H.4a.4.4 0 0 1-.284-.682L4.11.117A.407.407 0 0 1 4.394 0h15.175a.4.4 0 0 1 .284.117l3.95 3.95a.4.4 0 0 1-.232.726zM1.363 3.993H22.6L19.405.8H4.558L1.363 3.993zm9.42 15.994a.42.42 0 1 1 .42-.419.435.435 0 0 1-.42.42z" opacity=".15"/>
</svg>
