<svg xmlns="http://www.w3.org/2000/svg" width="28" height="30" viewBox="0 0 28 30">
    <path fill="#000" fill-rule="nonzero" d="M18.5 30h-9a.5.5 0 0 1-.5-.5v-7a.5.5 0 0 1 .5-.5h9a.5.5 0 0 1 .5.5v7a.5.5 0 0 1-.5.5zM10 29h8v-6h-8v6zm4 1a.5.5 0 0 1-.5-.5v-7a.5.5 0 0 1 1 0v7a.5.5 0 0 1-.5.5zm-1.5-2.975a.525.525 0 1 1 .525-.525.544.544 0 0 1-.525.526v-.001zm3 0a.525.525 0 1 1 .525-.525.544.544 0 0 1-.525.526v-.001zM6.5 18a.5.5 0 0 1-.5-.5v-4a.5.5 0 0 1 1 0v4a.5.5 0 0 1-.5.501V18zm3 0a.5.5 0 0 1-.5-.5v-4a.5.5 0 0 1 1 0v4a.5.5 0 0 1-.5.501V18zm3 0h-9a.5.5 0 0 1-.5-.5v-4a.5.5 0 0 1 .5-.5h9a.5.5 0 0 1 .5.5v4a.5.5 0 0 1-.5.501V18zM4 17h8v-3H4v3zm8.5 4h-9a.5.5 0 0 1-.5-.5v-3a.5.5 0 0 1 .5-.5h9a.5.5 0 0 1 .5.5v3a.5.5 0 0 1-.5.501V21zM4 20h8v-2H4v2zm9-2H3a.5.5 0 0 1 0-1h10a.5.5 0 1 1 0 1.001V18zm5.5 0a.5.5 0 0 1-.5-.5v-4a.5.5 0 0 1 1 0v4a.5.5 0 0 1-.5.501V18zm3 0a.5.5 0 0 1-.5-.5v-4a.5.5 0 0 1 1 0v4a.5.5 0 0 1-.5.501V18zm3 0h-9a.5.5 0 0 1-.5-.5v-4a.5.5 0 0 1 .5-.5h9a.5.5 0 0 1 .5.5v4a.5.5 0 0 1-.5.501V18zM16 17h8v-3h-8v3zm8.5 4h-9a.5.5 0 0 1-.5-.5v-3a.5.5 0 0 1 .5-.5h9a.5.5 0 0 1 .5.5v3a.5.5 0 0 1-.5.501V21zM16 20h8v-2h-8v2zm9-2H15a.5.5 0 0 1 0-1h10a.5.5 0 1 1 0 1.001V18zM6.5 9a.5.5 0 0 1-.5-.5v-4a.5.5 0 0 1 1 0v4a.5.5 0 0 1-.5.501V9zm3 0a.5.5 0 0 1-.5-.5v-4a.5.5 0 0 1 1 0v4a.5.5 0 0 1-.5.501V9zm3 0h-9a.5.5 0 0 1-.5-.5v-4a.5.5 0 0 1 .5-.5h9a.5.5 0 0 1 .5.5v4a.5.5 0 0 1-.5.501V9zM4 8h8V5H4v3zm8.5 4h-9a.5.5 0 0 1-.5-.5v-3a.5.5 0 0 1 .5-.5h9a.5.5 0 0 1 .5.5v3a.5.5 0 0 1-.5.501V12zM4 11h8V9H4v2zm9-2H3a.5.5 0 0 1 0-1h10a.5.5 0 1 1 0 1.001V9zm5.5 0a.5.5 0 0 1-.5-.5v-4a.5.5 0 0 1 1 0v4a.5.5 0 0 1-.5.501V9zm3 0a.5.5 0 0 1-.5-.5v-4a.5.5 0 0 1 1 0v4a.5.5 0 0 1-.5.501V9zm3 0h-9a.5.5 0 0 1-.5-.5v-4a.5.5 0 0 1 .5-.5h9a.5.5 0 0 1 .5.5v4a.5.5 0 0 1-.5.501V9zM16 8h8V5h-8v3zm8.5 4h-9a.5.5 0 0 1-.5-.5v-3a.5.5 0 0 1 .5-.5h9a.5.5 0 0 1 .5.5v3a.5.5 0 0 1-.5.501V12zM16 11h8V9h-8v2zm9-2H15a.5.5 0 0 1 0-1h10a.5.5 0 1 1 0 1.001V9zM9.5 28h-8a.5.5 0 0 1 0-1h8a.5.5 0 0 1 0 1zm17-25h-25a.5.5 0 0 1 0-1h25a.501.501 0 1 1 0 1.002V3zm1-2H.5a.5.5 0 0 1 0-1h27a.501.501 0 1 1 0 1.002V1zm-1 27h-8a.5.5 0 0 1 0-1h8a.5.5 0 0 1 0 1zm0 2h-25a.5.5 0 0 1-.5-.5V.5a.5.5 0 0 1 .5-.5h25a.5.5 0 0 1 .5.5v29a.5.5 0 0 1-.5.5zM2 29h24V1H2v28z" opacity=".15"/>
</svg>
