<svg xmlns="http://www.w3.org/2000/svg" width="30" height="27" viewBox="0 0 30 27">
    <path fill="#D3D3D3" fill-rule="nonzero" d="M4.82 11.88H2.678a.537.537 0 0 1-.535-.54V4.86a.537.537 0 0 1 .535-.54H4.82a.538.538 0 0 1 .535.54v6.48a.538.538 0 0 1-.535.54zM3.213 10.8h1.071V5.4h-1.07v5.4zm3.748 1.08h-2.14a.538.538 0 0 1-.537-.54V4.86a.538.538 0 0 1 .536-.54h2.141a.538.538 0 0 1 .536.54v6.48a.538.538 0 0 1-.536.54zM5.355 10.8h1.071V5.4h-1.07v5.4zm11.112 9.72h-2.949a4.774 4.774 0 0 1-3.8-1.87 4.862 4.862 0 0 1-.877-4.17l1.68-6.774a1.608 1.608 0 0 1 1.558-1.227h5.822c.74.001 1.384.508 1.56 1.227l1.678 6.774a4.859 4.859 0 0 1-.877 4.17 4.774 4.774 0 0 1-3.795 1.87zM12.081 7.56a.536.536 0 0 0-.52.408l-1.679 6.774a3.782 3.782 0 0 0 .682 3.243 3.714 3.714 0 0 0 2.954 1.454h2.95a3.714 3.714 0 0 0 2.953-1.454 3.782 3.782 0 0 0 .682-3.243l-1.679-6.774a.536.536 0 0 0-.52-.409h-5.823zM10.174 27a.538.538 0 0 1-.508-.712l2.141-6.48a.534.534 0 0 1 .678-.342.54.54 0 0 1 .338.683l-2.14 6.48a.537.537 0 0 1-.509.37zm9.637 0a.537.537 0 0 1-.508-.37l-2.14-6.48a.541.541 0 0 1 .337-.683.534.534 0 0 1 .678.342l2.141 6.48a.541.541 0 0 1-.508.71zm1.19-20.653a.533.533 0 0 1-.378-.158l-3.216-3.243a.545.545 0 0 1 0-.764l.4-.405a2.793 2.793 0 0 1 3.973 0 2.849 2.849 0 0 1 0 4.006l-.4.406a.532.532 0 0 1-.379.158zm-2.458-3.783l2.458 2.48.023-.024a1.763 1.763 0 0 0 0-2.479 1.771 1.771 0 0 0-2.459 0l-.022.023zm8.762 9.315h-4.283a.538.538 0 0 1-.536-.54v-.54a2.154 2.154 0 0 1 2.142-2.16h1.073a2.153 2.153 0 0 1 2.141 2.16v.54a.537.537 0 0 1-.535.54h-.002zm-3.748-1.08h3.213a1.076 1.076 0 0 0-1.07-1.08h-1.072a1.076 1.076 0 0 0-1.069 1.08h-.002zm1.606-1.08a.538.538 0 0 1-.535-.54V7.02c0-.143.057-.28.157-.382l1.763-1.778-3.524-3.56-1.223 1.242a.532.532 0 0 1-.757 0 .543.543 0 0 1 0-.763L22.65.158a.532.532 0 0 1 .757 0l4.284 4.32c.21.212.21.553 0 .764l-1.985 2V9.18a.538.538 0 0 1-.54.54h-.003zM9.636 14.04h-9.1a.538.538 0 0 1-.535-.54v-2.16a.538.538 0 0 1 .535-.54h9.638a.545.545 0 0 1 .522.671l-.535 2.16a.537.537 0 0 1-.523.41h-.002zM1.07 12.96h8.148l.268-1.08H1.07v1.08zm28.377 1.08h-9.1a.537.537 0 0 1-.52-.409l-.535-2.16a.545.545 0 0 1 .522-.67h9.638a.538.538 0 0 1 .535.54v2.16a.538.538 0 0 1-.538.54h-.002zm-8.684-1.08h8.148v-1.08h-8.41l.262 1.08zM.537 27a.536.536 0 0 1-.529-.629L2.15 13.41a.536.536 0 0 1 .528-.45H4.82c.173 0 .334.083.434.223.1.141.128.322.074.486L1.044 26.63a.536.536 0 0 1-.507.37zm2.595-12.96l-.946 5.72 1.891-5.72h-.945zM29.45 27a.536.536 0 0 1-.508-.369l-4.283-12.96a.544.544 0 0 1 .073-.486c.1-.14.262-.224.434-.224h2.142c.263 0 .486.192.528.451l2.125 12.856a.541.541 0 0 1-.5.733h-.01zm-3.54-12.96l1.89 5.72-.946-5.72h-.945z"/>
</svg>
