<svg xmlns="http://www.w3.org/2000/svg" width="28" height="29" viewBox="0 0 28 29">
    <path fill="#D3D3D3" fill-rule="nonzero" d="M21.93 12.8h-2.8a.467.467 0 0 1-.467-.468V8.597c0-.257.21-.467.467-.467h2.8c.258 0 .467.21.467.467v3.735c0 .258-.21.467-.467.467zm-2.33-.934h1.867v-2.8H19.6v2.8zm2.8.934h-3.734a.467.467 0 1 1 0-.934H22.4a.467.467 0 0 1 0 .933v.001zm-.467-1.868h-2.8a.467.467 0 1 1 0-.934h2.8a.467.467 0 1 1-.003.933l.003.001zM4.2 11.866a.467.467 0 0 1-.466-.467V9.532a.467.467 0 1 1 .933 0V11.4c0 .258-.21.467-.467.467zm-1.866.921a.467.467 0 0 1-.467-.467V9.532a.467.467 0 1 1 .933 0v2.788a.467.467 0 0 1-.47.466l.004.001zm2.333-2.789h-2.8a.467.467 0 0 1-.467-.466V7.666c0-.257.21-.467.467-.467h2.8c.258 0 .467.21.467.467v1.868a.467.467 0 0 1-.471.463l.004.001zm-2.333-.933H4.2v-.934H2.33v.935h.004zm12.133 4.18a.467.467 0 0 1-.466-.467V6.73a.467.467 0 1 1 .933 0v6.048a.467.467 0 0 1-.471.466l.004.001zM9.8 28.673H6.066a.467.467 0 0 1-.467-.467v-5.6c0-.257.21-.467.467-.467H9.8c.258.001.466.21.466.467v5.6a.467.467 0 0 1-.466.467zm-3.267-.934h2.8v-4.673h-2.8v4.673zm.933-1.844a.491.491 0 1 1 .49-.49.508.508 0 0 1-.493.49h.003zm.467-6.56A1.868 1.868 0 1 1 9.8 17.466a1.87 1.87 0 0 1-1.87 1.87h.003zm0-2.8a.934.934 0 1 0 .659.273.935.935 0 0 0-.662-.274l.003.001zm6.533 12.14H1.4a.467.467 0 0 1-.467-.468V15.6H.467A.467.467 0 0 1 0 15.133v-1.867c0-.176.1-.338.258-.418l7.467-3.735a.466.466 0 0 1 .418 0l7.466 3.735a.466.466 0 0 1 .258.418v1.867a.467.467 0 0 1-.466.467h-.471v12.606a.467.467 0 0 1-.467.467l.003.001zm-12.6-.935H14V15.133c0-.257.208-.466.466-.467h.467v-1.112l-7-3.5-7 3.5v1.112H1.4c.258 0 .467.21.467.467V27.74l-.001.001zm12.6-12.139h-.936a.467.467 0 0 1-.467-.467v-.645L7.93 11.921 2.796 14.49v.645a.467.467 0 0 1-.466.467H1.4a.467.467 0 1 1 0-.934h.467V14.2c0-.176.1-.338.258-.417l5.6-2.8a.472.472 0 0 1 .418 0l5.6 2.8c.158.08.258.24.258.417v.466h.466a.467.467 0 1 1-.004.934l.003.001zM26.6 19.336a.468.468 0 0 1-.467-.467V6.73c0-.257.21-.466.467-.467h.467v-1.12l-6.534-3.486L14 5.142v1.12h.466a.467.467 0 1 1 0 .934h-.936a.467.467 0 0 1-.467-.467V4.866c0-.172.095-.33.247-.412l7-3.735a.462.462 0 0 1 .439 0l7 3.735c.152.082.247.24.247.412v1.867a.467.467 0 0 1-.466.467h-.467v11.666a.467.467 0 0 1-.463.47zm0-12.139h-.933a.467.467 0 0 1-.467-.467v-.656l-4.667-2.547-4.667 2.547v.656a.467.467 0 0 1-.466.467h-.934a.467.467 0 1 1 0-.934h.467v-.467c0-.17.093-.327.243-.409l5.134-2.8a.467.467 0 0 1 .447 0l5.133 2.8c.15.082.243.239.243.41v.47h.467a.467.467 0 1 1 0 .93zm0 21.477H14.463a.467.467 0 0 1-.463-.468v-9.34c0-.257.208-.466.466-.467H26.6a.467.467 0 0 1 .467.467v9.338a.467.467 0 0 1-.467.47zm-11.667-.934h11.2v-8.4h-11.2v8.4zm-8.867-.934H1.4a.467.467 0 1 1 0-.933h4.667a.467.467 0 1 1-.004.932l.003.001zm8.4 0H9.8a.467.467 0 1 1 0-.933h4.666a.467.467 0 1 1-.003.932l.003.001zm12.134-9.34H14.463a.467.467 0 1 1 0-.934H26.6a.467.467 0 1 1 0 .934zm-1.867 11.205h-8.4a.467.467 0 0 1-.467-.467v-7.47a.467.467 0 0 1 .467-.467h8.4c.258 0 .467.21.467.467v7.47a.467.467 0 0 1-.47.47l.003-.003zm-7.933-.934h7.467v-6.536H16.8v6.536zm7.933-4.669h-8.4a.467.467 0 1 1 0-.934h8.4a.467.467 0 0 1-.003.932l.003.002zm0 1.868h-8.4a.467.467 0 1 1 0-.934h8.4a.468.468 0 1 1-.003.936l.003-.002zm0 1.867h-8.4a.467.467 0 1 1 0-.933h8.4a.468.468 0 1 1-.003.935l.003-.002z"/>
</svg>
