<svg xmlns="http://www.w3.org/2000/svg" width="23" height="21" viewBox="0 0 23 21">
    <path fill="#000" fill-rule="nonzero" d="M11.506 8.719c-1.81 0-3.645.058-5.453.172a.388.388 0 0 1-.406-.371.393.393 0 0 1 .36-.418 87.738 87.738 0 0 1 5.5-.174v.79zm11.167-.06a.4.4 0 0 1 .33.445.388.388 0 0 1-.38.345.436.436 0 0 1-.05 0l.1-.79zm-22.285.79a.388.388 0 0 1-.382-.347.4.4 0 0 1 .33-.445c.642-.087 1.3-.164 1.96-.236a.387.387 0 0 1 .421.352.393.393 0 0 1-.34.436 75.645 75.645 0 0 0-1.988.238v.002zm22.234-6.667a.372.372 0 0 1-.138-.026A29.992 29.992 0 0 0 11.505.796 29.992 29.992 0 0 0 .526 2.756a.38.38 0 0 1-.5-.228.4.4 0 0 1 .22-.512A30.754 30.754 0 0 1 11.506.002a30.754 30.754 0 0 1 11.255 2.012.4.4 0 0 1 .22.512.383.383 0 0 1-.358.254v.002zm-7.405 5.3a.373.373 0 0 1 .533.1.4.4 0 0 1-.1.55l-.433-.65zm5.98.6a.377.377 0 0 1 .531-.11.4.4 0 0 1 .105.55l-.637-.44zm-6.643.07a.385.385 0 0 1-.369-.288C13.175 4.749 11.92 2.51 9.858.737A.405.405 0 0 1 9.81.179a.374.374 0 0 1 .54-.051c2.193 1.885 3.518 4.238 4.575 8.12a.4.4 0 0 1-.368.508l-.002-.003zm-2.71-.036a.389.389 0 0 1-.384-.376 9.28 9.28 0 0 0-.07-.755.394.394 0 0 1 .326-.447.386.386 0 0 1 .432.338c.038.285.064.562.077.823a.391.391 0 0 1-.363.416h-.02.001zm-.6-3.1a.385.385 0 0 1-.365-.273 14.15 14.15 0 0 0-.252-.725.4.4 0 0 1 .217-.514.379.379 0 0 1 .5.225c.096.254.185.51.267.767a.4.4 0 0 1-.367.522v-.002zm-1.29-2.87a.379.379 0 0 1-.324-.181 8.113 8.113 0 0 0-.423-.617.405.405 0 0 1 .066-.556.376.376 0 0 1 .538.068c.158.21.314.437.463.677a.4.4 0 0 1-.115.547.37.37 0 0 1-.205.065v-.002zm-.893 5.97a.386.386 0 0 1-.378-.465 8.606 8.606 0 0 0-2.048-7.2.405.405 0 0 1 0-.56.373.373 0 0 1 .542 0A9.449 9.449 0 0 1 9.44 8.398a.388.388 0 0 1-.378.32v-.001zm-4.839 9.51a.39.39 0 0 1-.383-.4v-3.962a.384.384 0 1 1 .767 0v3.962a.39.39 0 0 1-.383.402v-.002zm0-3.962A2.733 2.733 0 0 1 1.54 11.49c0-1.1.934-6.735 2.683-6.735 1.75 0 2.683 5.639 2.683 6.735a2.733 2.733 0 0 1-2.682 2.776v-.002zm0-8.717c-.556 0-1.917 3.58-1.917 5.943a1.918 1.918 0 1 0 3.833 0c.001-2.36-1.36-5.941-1.915-5.941v-.002zm-.489 7.077a.38.38 0 0 1-.094-.012 1.093 1.093 0 0 1-.836-1.02.393.393 0 0 1 .332-.441.386.386 0 0 1 .428.343c-.012.166.1.315.263.35a.4.4 0 0 1 .278.48.385.385 0 0 1-.37.302v-.002zm.883-3.722a.38.38 0 0 1-.318-.174.321.321 0 0 0-.388-.19.382.382 0 0 1-.458-.3.4.4 0 0 1 .29-.472c.468-.123.96.09 1.191.516.12.18.076.423-.1.55a.374.374 0 0 1-.217.07zm14.561 12.1a.39.39 0 0 1-.383-.4v-3.963a.384.384 0 1 1 .767 0v3.963a.39.39 0 0 1-.384.4zm0-3.962a2.733 2.733 0 0 1-2.683-2.774c0-.677.257-3.658.678-6.5.858-5.787 1.6-5.787 2.005-5.787.405 0 1.147 0 2.005 5.787.421 2.838.678 5.819.678 6.5a2.733 2.733 0 0 1-2.683 2.774zm0-14.233c-.877.866-1.917 9.682-1.917 11.459a1.918 1.918 0 1 0 3.833 0c0-1.777-1.04-10.593-1.916-11.46zm-7.67 18.195a.39.39 0 0 1-.384-.4v-3.963a.384.384 0 1 1 .767 0v3.963a.39.39 0 0 1-.384.4zm0-3.962a2.733 2.733 0 0 1-2.684-2.774c0-1.1.934-6.736 2.683-6.736 1.75 0 2.683 5.64 2.683 6.736a2.733 2.733 0 0 1-2.683 2.774zm0-8.717c-.557 0-1.918 3.58-1.918 5.943a1.918 1.918 0 1 0 3.833 0c.005-2.364-1.356-5.943-1.916-5.943zm-.486 7.079a.38.38 0 0 1-.094-.012 1.094 1.094 0 0 1-.836-1.02.393.393 0 0 1 .333-.441.386.386 0 0 1 .428.343c-.012.166.1.315.263.35a.4.4 0 0 1 .278.48.386.386 0 0 1-.372.3zm.882-3.73a.38.38 0 0 1-.318-.173.32.32 0 0 0-.388-.19.383.383 0 0 1-.458-.3.4.4 0 0 1 .29-.473c.468-.122.96.091 1.191.517a.406.406 0 0 1-.1.55.374.374 0 0 1-.214.068l-.003.002zm8.378 2.473a.385.385 0 0 1-.36-.262.325.325 0 0 0-.33-.281.391.391 0 0 1-.374-.407.382.382 0 0 1 .393-.385c.485.004.907.331 1.032.8a.4.4 0 0 1-.36.533v.002zm-1.3-4.691a.4.4 0 0 1-.32.453.4.4 0 0 1-.059 0 .387.387 0 0 1-.378-.335 1.121 1.121 0 0 1 .58-1.194l.177 1.076z" opacity=".15"/>
</svg>
